<svg width="552" height="414" viewBox="0 0 552 414" fill="none" xmlns="http://www.w3.org/2000/svg">
<g clip-path="url(#clip0)">
<path d="M0 127.062H552.345" stroke="white" stroke-width="0.75" stroke-miterlimit="10"/>
<path d="M552.345 261.749H0" stroke="#005B9D" stroke-width="0.75" stroke-miterlimit="10"/>
<path d="M0 152.251H552.345" stroke="#005B9D" stroke-width="0.75" stroke-miterlimit="10"/>
<path d="M552.345 286.938H0" stroke="#005B9D" stroke-width="0.75" stroke-miterlimit="10"/>
<path d="M56.7871 92.667C72.6397 92.667 85.491 79.8158 85.491 63.9627C85.491 48.11 72.6397 35.2587 56.7871 35.2587C40.9344 35.2587 28.0831 48.11 28.0831 63.9627C28.0831 79.8158 40.9344 92.667 56.7871 92.667Z" stroke="#E7A614" stroke-width="14.25"/>
<path d="M267.931 350.514C270.484 351.549 271.657 354.447 270.622 357L259.03 384.945C257.995 387.499 255.097 388.671 252.544 387.636C249.991 386.601 248.818 383.703 249.853 381.15L261.445 353.205C262.48 350.652 265.378 349.479 267.931 350.514Z" fill="#F5DBA0"/>
<path d="M278.765 376.735C277.799 379.081 275.108 380.184 272.762 379.218L244.127 367.351C241.781 366.385 240.677 363.693 241.643 361.347C242.609 359.001 245.3 357.897 247.646 358.863L276.281 370.731C278.627 371.766 279.731 374.458 278.765 376.735Z" fill="#F5DBA0"/>
<path d="M56.2672 57.27H490.76C497.315 57.27 502.628 62.583 502.628 69.138V320.712C502.628 327.267 497.315 332.58 490.76 332.58H56.2672C49.7122 332.58 44.3992 327.267 44.3992 320.712V69.138C44.3992 62.583 49.7122 57.27 56.2672 57.27Z" fill="#F5DBA0"/>
<path d="M117.369 74.106V325.818" stroke="#383838" stroke-width="0.75"/>
<path d="M133.654 86.319H474.928C480.517 86.319 485.002 90.873 485.002 96.393C485.002 101.982 480.448 106.467 474.928 106.467H133.654C128.065 106.467 123.58 101.913 123.58 96.393C123.511 90.804 128.065 86.319 133.654 86.319Z" fill="#E7A614"/>
<path d="M140.553 225.266C140.553 215.447 148.557 207.551 158.355 207.551H450.156C460.023 207.551 467.958 215.516 467.958 225.266V332.58H140.553V225.266Z" fill="#E7A614"/>
<path d="M85.905 70.932H64.9287V72.4328H85.905V70.932Z" fill="#E7A614"/>
<path d="M85.905 75.2286H64.9287V76.7287H85.905V75.2286Z" fill="#E7A614"/>
<path d="M85.905 79.5245H64.9287V81.0253H85.905V79.5245Z" fill="#E7A614"/>
<path d="M109.02 149.867H65.0669V151.316H109.02V149.867Z" fill="#76889C"/>
<path d="M109.02 153.524H65.0669V154.973H109.02V153.524Z" fill="#76889C"/>
<path d="M109.02 157.181H65.0669V158.63H109.02V157.181Z" fill="#76889C"/>
<path d="M109.02 167.394H65.0669V168.843H109.02V167.394Z" fill="#76889C"/>
<path d="M109.02 171.05H65.0669V172.499H109.02V171.05Z" fill="#76889C"/>
<path d="M109.02 174.707H65.0669V176.156H109.02V174.707Z" fill="#76889C"/>
<path d="M109.02 184.919H65.0669V186.368H109.02V184.919Z" fill="#76889C"/>
<path d="M109.02 188.576H65.0669V190.025H109.02V188.576Z" fill="#76889C"/>
<path d="M109.02 192.234H65.0669V193.683H109.02V192.234Z" fill="#76889C"/>
<path d="M109.02 202.445H65.0669V203.894H109.02V202.445Z" fill="#76889C"/>
<path d="M109.02 206.102H65.0669V207.551H109.02V206.102Z" fill="#76889C"/>
<path d="M109.02 209.759H65.0669V211.208H109.02V209.759Z" fill="#76889C"/>
<path d="M109.02 219.971H65.0669V221.42H109.02V219.971Z" fill="#76889C"/>
<path d="M109.02 223.629H65.0669V225.078H109.02V223.629Z" fill="#76889C"/>
<path d="M109.02 227.285H65.0669V228.734H109.02V227.285Z" fill="#76889C"/>
<path d="M109.02 237.497H65.0669V238.946H109.02V237.497Z" fill="#76889C"/>
<path d="M109.02 241.154H65.0669V242.603H109.02V241.154Z" fill="#76889C"/>
<path d="M109.02 244.811H65.0669V246.26H109.02V244.811Z" fill="#76889C"/>
<path d="M109.02 255.024H65.0669V256.473H109.02V255.024Z" fill="#76889C"/>
<path d="M109.02 258.68H65.0669V260.129H109.02V258.68Z" fill="#76889C"/>
<path d="M109.02 262.337H65.0669V263.786H109.02V262.337Z" fill="#76889C"/>
<path d="M110.262 270.617H65.2737V315.398H110.262V270.617Z" fill="#76889C"/>
<path d="M110.262 96.3923H65.2737V141.173H110.262V96.3923Z" fill="#76889C"/>
<path d="M488.52 71.139L482.31 77.349" stroke="#78D2EE" stroke-width="0.8073" stroke-linecap="round"/>
<path d="M482.31 71.139L488.52 77.349" stroke="#78D2EE" stroke-width="0.8073" stroke-linecap="round"/>
<path d="M470.442 70.932H463.266V77.418H470.442V70.932Z" stroke="#78D2EE" stroke-width="0.8073" stroke-linecap="round"/>
<path d="M443.946 74.106H451.398" stroke="#78D2EE" stroke-width="0.8073" stroke-linecap="round"/>
<path d="M126.201 106.536H482.31" stroke="#78D2EE" stroke-width="0.75"/>
<path d="M207.483 137.586H252.54C254.058 137.586 255.3 138.828 255.3 140.346V185.472C255.3 186.99 254.058 188.232 252.54 188.232H207.414C205.896 188.232 204.654 186.99 204.654 185.472V140.346C204.723 138.828 205.965 137.586 207.483 137.586Z" fill="#192439"/>
<path d="M233.978 190.992H204.722V194.994H233.978V190.992Z" fill="#192439"/>
<path d="M230.046 171.603C236.257 171.603 241.293 166.567 241.293 160.356C241.293 154.144 236.257 149.109 230.046 149.109C223.834 149.109 218.799 154.144 218.799 160.356C218.799 166.567 223.834 171.603 230.046 171.603Z" fill="#76889C"/>
<path fill-rule="evenodd" clip-rule="evenodd" d="M250.194 188.232H209.76C209.346 187.059 209.139 185.817 209.139 184.575C209.139 176.226 218.454 169.464 229.977 169.464C241.5 169.464 250.815 176.226 250.815 184.575C250.815 185.817 250.608 187.059 250.194 188.232Z" fill="#76889C"/>
<path d="M136.412 137.586H181.538C183.056 137.586 184.298 138.828 184.298 140.346V185.472C184.298 186.99 183.056 188.232 181.538 188.232H136.412C134.894 188.232 133.652 186.99 133.652 185.472V140.346C133.652 138.828 134.894 137.586 136.412 137.586Z" fill="#192439"/>
<path d="M162.908 190.992H133.652V194.994H162.908V190.992Z" fill="#192439"/>
<path d="M170.033 162.16C171.029 156.029 166.865 150.252 160.733 149.257C154.602 148.261 148.825 152.425 147.83 158.556C146.835 164.688 150.998 170.465 157.13 171.46C163.262 172.455 169.038 168.292 170.033 162.16Z" fill="#76889C"/>
<path fill-rule="evenodd" clip-rule="evenodd" d="M179.124 188.232H138.69C138.276 187.059 138.069 185.817 138.069 184.575C138.069 176.226 147.384 169.464 158.907 169.464C170.43 169.464 179.745 176.226 179.745 184.575C179.745 185.817 179.538 187.059 179.124 188.232Z" fill="#76889C"/>
<path d="M278.484 137.586H323.61C325.128 137.586 326.37 138.828 326.37 140.346V185.472C326.37 186.99 325.128 188.232 323.61 188.232H278.484C276.966 188.232 275.724 186.99 275.724 185.472V140.346C275.793 138.828 276.966 137.586 278.484 137.586Z" fill="#192439"/>
<path d="M305.048 190.992H275.792V194.994H305.048V190.992Z" fill="#192439"/>
<path d="M301.046 171.603C307.258 171.603 312.293 166.567 312.293 160.356C312.293 154.144 307.258 149.109 301.046 149.109C294.835 149.109 289.799 154.144 289.799 160.356C289.799 166.567 294.835 171.603 301.046 171.603Z" fill="#76889C"/>
<path fill-rule="evenodd" clip-rule="evenodd" d="M321.264 188.232H280.83C280.416 187.059 280.209 185.817 280.209 184.575C280.209 176.226 289.524 169.464 301.047 169.464C312.57 169.464 321.885 176.226 321.885 184.575C321.885 185.817 321.678 187.059 321.264 188.232Z" fill="#76889C"/>
<path d="M349.899 137.586H395.025C396.543 137.586 397.785 138.828 397.785 140.346V185.472C397.785 186.99 396.543 188.232 395.025 188.232H349.899C348.381 188.232 347.139 186.99 347.139 185.472V140.346C347.139 138.828 348.381 137.586 349.899 137.586Z" fill="#192439"/>
<path d="M376.395 190.992H347.139V194.994H376.395V190.992Z" fill="#192439"/>
<path d="M372.461 171.603C378.673 171.603 383.708 166.567 383.708 160.356C383.708 154.144 378.673 149.109 372.461 149.109C366.25 149.109 361.214 154.144 361.214 160.356C361.214 166.567 366.25 171.603 372.461 171.603Z" fill="#76889C"/>
<path fill-rule="evenodd" clip-rule="evenodd" d="M392.679 188.232H352.245C351.831 187.059 351.624 185.817 351.624 184.575C351.624 176.226 360.939 169.464 372.462 169.464C383.985 169.464 393.3 176.226 393.3 184.575C393.3 185.817 393.024 187.059 392.679 188.232Z" fill="#76889C"/>
<path d="M420.624 137.586H465.75C467.268 137.586 468.51 138.828 468.51 140.346V185.472C468.51 186.99 467.268 188.232 465.75 188.232H420.624C419.106 188.232 417.864 186.99 417.864 185.472V140.346C417.864 138.828 419.106 137.586 420.624 137.586Z" fill="#192439"/>
<path d="M447.12 190.992H417.864V194.994H447.12V190.992Z" fill="#192439"/>
<path d="M443.187 171.603C449.398 171.603 454.434 166.567 454.434 160.356C454.434 154.144 449.398 149.109 443.187 149.109C436.976 149.109 431.94 154.144 431.94 160.356C431.94 166.567 436.976 171.603 443.187 171.603Z" fill="#76889C"/>
<path fill-rule="evenodd" clip-rule="evenodd" d="M463.404 188.232H422.97C422.556 187.059 422.349 185.817 422.349 184.575C422.349 176.226 431.664 169.464 443.187 169.464C454.71 169.464 464.025 176.226 464.025 184.575C464.025 185.817 463.818 187.059 463.404 188.232Z" fill="#76889C"/>
<path d="M393.437 181.608H402.062C403.235 181.608 404.132 182.505 404.132 183.678V192.855C404.132 194.028 403.235 194.925 402.062 194.925H393.437C392.264 194.925 391.367 194.028 391.367 192.855V183.678C391.367 182.574 392.333 181.608 393.437 181.608Z" fill="white" fill-opacity="0.6"/>
<path d="M397.095 186.231C397.095 185.886 397.371 185.541 397.785 185.541C398.13 185.541 398.475 185.817 398.475 186.231V190.371C398.475 190.716 398.199 191.061 397.785 191.061C397.44 191.061 397.095 190.785 397.095 190.371V186.231Z" fill="#1B2226"/>
<path d="M399.854 187.68C400.199 187.68 400.475 187.956 400.475 188.301C400.475 188.646 400.199 188.922 399.854 188.922H395.576C395.231 188.922 394.955 188.646 394.955 188.301C394.955 187.956 395.231 187.68 395.576 187.68H399.854Z" fill="#1B2226"/>
<path d="M464.231 181.608H472.856C474.029 181.608 474.926 182.505 474.926 183.678V192.855C474.926 194.028 474.029 194.925 472.856 194.925H464.231C463.058 194.925 462.161 194.028 462.161 192.855V183.678C462.161 182.574 463.058 181.608 464.231 181.608Z" fill="white" fill-opacity="0.6"/>
<path d="M467.82 186.231C467.82 185.886 468.096 185.541 468.51 185.541C468.855 185.541 469.2 185.817 469.2 186.231V190.371C469.2 190.716 468.924 191.061 468.51 191.061C468.165 191.061 467.82 190.785 467.82 190.371V186.231Z" fill="#1B2226"/>
<path d="M470.649 187.68C470.994 187.68 471.27 187.956 471.27 188.301C471.27 188.646 470.994 188.922 470.649 188.922H466.371C466.026 188.922 465.75 188.646 465.75 188.301C465.75 187.956 466.026 187.68 466.371 187.68H470.649Z" fill="#1B2226"/>
<path d="M251.021 181.608H259.646C260.819 181.608 261.716 182.505 261.716 183.678V192.855C261.716 194.028 260.819 194.925 259.646 194.925H251.021C249.848 194.925 248.951 194.028 248.951 192.855V183.678C248.951 182.574 249.848 181.608 251.021 181.608Z" fill="white" fill-opacity="0.6"/>
<path d="M254.609 186.231C254.609 185.886 254.885 185.541 255.299 185.541C255.644 185.541 255.989 185.817 255.989 186.231V190.371C255.989 190.716 255.713 191.061 255.299 191.061C254.954 191.061 254.609 190.785 254.609 190.371V186.231Z" fill="#1B2226"/>
<path d="M257.438 187.68C257.783 187.68 258.059 187.956 258.059 188.301C258.059 188.646 257.783 188.922 257.438 188.922H253.16C252.815 188.922 252.539 188.646 252.539 188.301C252.539 187.956 252.815 187.68 253.16 187.68H257.438Z" fill="#1B2226"/>
<path d="M179.951 181.608H188.576C189.749 181.608 190.646 182.505 190.646 183.678V192.855C190.646 194.028 189.749 194.925 188.576 194.925H179.951C178.778 194.925 177.881 194.028 177.881 192.855V183.678C177.881 182.574 178.847 181.608 179.951 181.608Z" fill="white" fill-opacity="0.6"/>
<path d="M183.609 186.231C183.609 185.886 183.885 185.541 184.299 185.541C184.644 185.541 184.989 185.817 184.989 186.231V190.371C184.989 190.716 184.713 191.061 184.299 191.061C183.954 191.061 183.609 190.785 183.609 190.371V186.231Z" fill="#1B2226"/>
<path d="M186.369 187.68C186.714 187.68 186.99 187.956 186.99 188.301C186.99 188.646 186.714 188.922 186.369 188.922H182.16C181.815 188.922 181.539 188.646 181.539 188.301C181.539 187.956 181.815 187.68 182.16 187.68H186.369Z" fill="#1B2226"/>
<path d="M322.091 181.608H330.716C331.889 181.608 332.786 182.505 332.786 183.678V192.855C332.786 194.028 331.889 194.925 330.716 194.925H322.091C320.918 194.925 320.021 194.028 320.021 192.855V183.678C320.021 182.574 320.918 181.608 322.091 181.608Z" fill="white" fill-opacity="0.6"/>
<path d="M325.679 186.231C325.679 185.886 325.955 185.541 326.369 185.541C326.714 185.541 327.059 185.817 327.059 186.231V190.371C327.059 190.716 326.783 191.061 326.369 191.061C326.024 191.061 325.679 190.785 325.679 190.371V186.231Z" fill="#1B2226"/>
<path d="M328.508 187.68C328.853 187.68 329.129 187.956 329.129 188.301C329.129 188.646 328.853 188.922 328.508 188.922H324.23C323.885 188.922 323.609 188.646 323.609 188.301C323.609 187.956 323.885 187.68 324.23 187.68H328.508Z" fill="#1B2226"/>
<path d="M241.776 230.874H167.256V281.244H241.776V230.874Z" fill="#205284"/>
<path d="M339.618 230.874H265.098V281.244H339.618V230.874Z" fill="#205284"/>
<path d="M437.391 230.874H362.871V281.244H437.391V230.874Z" fill="#205284"/>
<path d="M241.776 288.351H167.256V294.009H241.776V288.351Z" fill="#F5DBA0"/>
<path d="M339.618 288.351H265.098V294.009H339.618V288.351Z" fill="#F5DBA0"/>
<path d="M437.391 288.351H362.871V294.009H437.391V288.351Z" fill="#F5DBA0"/>
<path d="M241.776 296.838H167.256V302.496H241.776V296.838Z" fill="#F5DBA0"/>
<path d="M339.618 296.838H265.098V302.496H339.618V296.838Z" fill="#F5DBA0"/>
<path d="M437.391 296.838H362.871V302.496H437.391V296.838Z" fill="#F5DBA0"/>
<path d="M241.776 317.883H167.256V332.097H241.776V317.883Z" fill="#F5DBA0"/>
<path d="M339.618 317.883H265.098V332.097H339.618V317.883Z" fill="#F5DBA0"/>
<path d="M437.391 317.883H362.871V332.097H437.391V317.883Z" fill="#F5DBA0"/>
<path d="M159.321 309.948H449.19" stroke="#121A2A" stroke-width="0.75"/>
<path d="M204.516 266.202C210.118 266.202 214.659 261.661 214.659 256.059C214.659 250.458 210.118 245.916 204.516 245.916C198.915 245.916 194.373 250.458 194.373 256.059C194.373 261.661 198.915 266.202 204.516 266.202Z" stroke="#283959" stroke-opacity="0.5" stroke-width="5.0439"/>
<path d="M209.415 255.645C209.76 255.852 209.76 256.335 209.415 256.473L202.446 260.475C202.101 260.682 201.687 260.406 201.687 260.061V252.057C201.687 251.712 202.101 251.436 202.446 251.643L209.415 255.645Z" fill="#76889C"/>
<path d="M400.13 266.271C405.732 266.271 410.273 261.73 410.273 256.128C410.273 250.526 405.732 245.985 400.13 245.985C394.529 245.985 389.987 250.526 389.987 256.128C389.987 261.73 394.529 266.271 400.13 266.271Z" stroke="#283959" stroke-opacity="0.5" stroke-width="5.0439"/>
<path d="M405.031 255.645C405.376 255.852 405.376 256.335 405.031 256.473L398.062 260.475C397.717 260.682 397.303 260.406 397.303 260.061V252.057C397.303 251.712 397.717 251.436 398.062 251.643L405.031 255.645Z" fill="#76889C"/>
<path d="M302.358 266.202C307.96 266.202 312.501 261.661 312.501 256.059C312.501 250.458 307.96 245.916 302.358 245.916C296.756 245.916 292.215 250.458 292.215 256.059C292.215 261.661 296.756 266.202 302.358 266.202Z" stroke="#283959" stroke-opacity="0.5" stroke-width="5.0439"/>
<path d="M307.257 255.645C307.602 255.852 307.602 256.335 307.257 256.473L300.288 260.475C299.943 260.682 299.529 260.406 299.529 260.061V252.057C299.529 251.712 299.943 251.436 300.288 251.643L307.257 255.645Z" fill="#76889C"/>
<path d="M123.303 332.166H485.139" stroke="black" stroke-opacity="0.53" stroke-width="3" stroke-miterlimit="10" stroke-linecap="round"/>
<path d="M402.575 116.457H343.737V122.199H402.575V116.457Z" fill="#76889C"/>
<path d="M471.442 116.457H412.604V122.199H471.442V116.457Z" fill="#76889C"/>
<path d="M195.974 116.457H137.137V122.199H195.974V116.457Z" fill="#76889C"/>
<path d="M264.842 116.457H206.004V122.199H264.842V116.457Z" fill="#76889C"/>
<path d="M333.708 116.457H274.87V122.199H333.708V116.457Z" fill="#76889C"/>
<path opacity="0.89" d="M362.685 27.833L391.525 42.2915C394.601 43.8296 395.832 47.5211 394.294 50.5205L379.835 79.3604C378.297 82.4371 374.605 83.6674 371.606 82.1293L342.766 67.6707C339.69 66.1326 338.46 62.4411 339.998 59.4417L354.456 30.6017C355.994 27.5254 359.685 26.2948 362.685 27.833Z" fill="#151515" fill-opacity="0.2"/>
<path d="M359.835 19.7342L385.71 32.7062C388.47 34.0862 389.574 37.3982 388.194 40.0892L375.222 65.9642C373.842 68.7242 370.53 69.828 367.839 68.4482L341.964 55.4762C339.204 54.0962 338.1 50.7842 339.48 48.0932L352.452 22.2182C353.832 19.4582 357.144 18.3542 359.835 19.7342Z" fill="#76889C"/>
<path opacity="0.89" fill-rule="evenodd" clip-rule="evenodd" d="M505.506 233.766C497.306 233.766 490.659 240.413 490.659 248.613C490.659 256.813 497.306 263.461 505.506 263.461C513.706 263.461 520.354 256.813 520.354 248.613C520.354 240.413 513.706 233.766 505.506 233.766ZM476.169 248.613C476.169 232.411 489.304 219.276 505.506 219.276C521.709 219.276 534.844 232.411 534.844 248.613C534.844 264.816 521.709 277.951 505.506 277.951C489.304 277.951 476.169 264.816 476.169 248.613Z" fill="#151515" fill-opacity="0.2"/>
<path d="M499.779 260.268C511.205 260.268 520.468 251.006 520.468 239.58C520.468 228.155 511.205 218.892 499.779 218.892C488.354 218.892 479.092 228.155 479.092 239.58C479.092 251.006 488.354 260.268 499.779 260.268Z" stroke="#E7A614" stroke-width="15"/>
<path opacity="0.89" fill-rule="evenodd" clip-rule="evenodd" d="M85.4062 271.652L74.0929 275.923C64.7416 279.502 60.0085 290.008 63.5872 299.359L70.5346 317.668L52.1581 324.641C42.8072 328.219 38.074 338.724 41.6528 348.075L45.9241 359.389C49.5029 368.74 60.0083 373.473 69.3595 369.894L87.708 362.933L94.6418 381.208C98.2201 390.559 108.725 395.292 118.076 391.713L129.39 387.442C138.741 383.863 143.474 373.358 139.895 364.007L132.972 345.759L151.209 338.84C160.56 335.261 165.293 324.756 161.714 315.405L157.443 304.092C153.864 294.74 143.474 290.008 134.008 293.586L115.799 300.495L108.841 282.157C105.262 272.806 94.757 268.073 85.4062 271.652Z" fill="black" fill-opacity="0.2"/>
<path opacity="0.7" d="M61.7974 291.207L71.513 287.539C79.5432 284.466 88.5643 288.53 91.6375 296.561L118.305 366.849C121.379 374.879 117.315 383.9 109.284 386.973L99.5684 390.641C91.5389 393.715 82.5171 389.651 79.4439 381.62L52.7759 311.332C49.7026 303.302 53.7673 294.28 61.7974 291.207Z" fill="#76889C"/>
<path opacity="0.89" d="M133.375 315.397L137.043 325.112C140.116 333.142 136.051 342.163 128.021 345.237L57.7333 371.905C49.7032 374.978 40.6817 370.914 37.6084 362.883L33.9404 353.168C30.8671 345.138 34.9317 336.116 42.9619 333.043L113.25 306.375C121.379 303.302 130.302 307.367 133.375 315.397Z" fill="#76889C"/>
</g>
<defs>
<clipPath id="clip0">
<rect width="552" height="414" fill="white"/>
</clipPath>
</defs>
</svg>
