<svg width="31" height="35" viewBox="0 0 31 35" fill="none" xmlns="http://www.w3.org/2000/svg">
<g clip-path="url(#clip0)" filter="url(#filter0_d)">
<path d="M26 26.7438H8C7.45 26.7438 7 26.245 7 25.6354V15.66H27V25.6354C27 26.245 26.55 26.7438 26 26.7438Z" fill="#F5DBA0"/>
<path d="M24 24.5271H6C5.45 24.5271 5 24.0283 5 23.4187V13.4434H25V23.4187C25 24.0283 24.55 24.5271 24 24.5271Z" stroke="#221B38" stroke-miterlimit="10" stroke-linecap="round" stroke-linejoin="round"/>
<path d="M22 7.90149H26C26.55 7.90149 27 8.40026 27 9.00986V15.6601H7V9.00986C7 8.40026 7.45 7.90149 8 7.90149H12" fill="#E7A614"/>
<path d="M20 5.68469H24C24.55 5.68469 25 6.18346 25 6.79307V13.4433H5V6.79307C5 6.18346 5.45 5.68469 6 5.68469H10" stroke="#221B38" stroke-miterlimit="10" stroke-linecap="round" stroke-linejoin="round"/>
<path d="M17 5.68469H13" stroke="#221B38" stroke-miterlimit="10" stroke-linecap="round" stroke-linejoin="round"/>
<path d="M20.5 11.2265C19.67 11.2265 19 10.4839 19 9.56398V6.23886C19 5.3189 19.67 4.57629 20.5 4.57629C21.33 4.57629 22 5.3189 22 6.23886V9.56398C22 10.4839 21.33 11.2265 20.5 11.2265Z" fill="#F5DBA0"/>
<path d="M18.5 9.00987C17.67 9.00987 17 8.26725 17 7.3473V4.02218C17 3.10223 17.67 2.35962 18.5 2.35962C19.33 2.35962 20 3.10223 20 4.02218V7.3473C20 8.26725 19.33 9.00987 18.5 9.00987Z" stroke="#221B38" stroke-miterlimit="10"/>
<path d="M13.5 11.2265C12.67 11.2265 12 10.4839 12 9.56398V6.23886C12 5.3189 12.67 4.57629 13.5 4.57629C14.33 4.57629 15 5.3189 15 6.23886V9.56398C15 10.4839 14.33 11.2265 13.5 11.2265Z" fill="#F5DBA0"/>
<path d="M11.5 9.00987C10.67 9.00987 10 8.26725 10 7.3473V4.02218C10 3.10223 10.67 2.35962 11.5 2.35962C12.33 2.35962 13 3.10223 13 4.02218V7.3473C13 8.26725 12.33 9.00987 11.5 9.00987Z" stroke="#221B38" stroke-miterlimit="10"/>
<path d="M20.5 21.2019H21.5" stroke="#221B38" stroke-miterlimit="10" stroke-linecap="round" stroke-linejoin="round"/>
<path d="M16.5 21.2019H17.5" stroke="#221B38" stroke-miterlimit="10" stroke-linecap="round" stroke-linejoin="round"/>
<path d="M12.5 21.2019H13.5" stroke="#221B38" stroke-miterlimit="10" stroke-linecap="round" stroke-linejoin="round"/>
<path d="M8.5 21.2019H9.5" stroke="#221B38" stroke-miterlimit="10" stroke-linecap="round" stroke-linejoin="round"/>
<path d="M20.5 16.7684H21.5" stroke="#221B38" stroke-miterlimit="10" stroke-linecap="round" stroke-linejoin="round"/>
<path d="M16.5 16.7684H17.5" stroke="#221B38" stroke-miterlimit="10" stroke-linecap="round" stroke-linejoin="round"/>
<path d="M12.5 16.7684H13.5" stroke="#221B38" stroke-miterlimit="10" stroke-linecap="round" stroke-linejoin="round"/>
<path d="M8.5 16.7684H9.5" stroke="#221B38" stroke-miterlimit="10" stroke-linecap="round" stroke-linejoin="round"/>
</g>
<defs>
<filter id="filter0_d" x="-1" y="0.142822" width="32" height="34.601" filterUnits="userSpaceOnUse" color-interpolation-filters="sRGB">
<feFlood flood-opacity="0" result="BackgroundImageFix"/>
<feColorMatrix in="SourceAlpha" type="matrix" values="0 0 0 0 0 0 0 0 0 0 0 0 0 0 0 0 0 0 127 0"/>
<feOffset dy="4"/>
<feGaussianBlur stdDeviation="2"/>
<feColorMatrix type="matrix" values="0 0 0 0 0 0 0 0 0 0 0 0 0 0 0 0 0 0 0.25 0"/>
<feBlend mode="normal" in2="BackgroundImageFix" result="effect1_dropShadow"/>
<feBlend mode="normal" in="SourceGraphic" in2="effect1_dropShadow" result="shape"/>
</filter>
<clipPath id="clip0">
<rect width="24" height="26.601" fill="white" transform="translate(3 0.142822)"/>
</clipPath>
</defs>
</svg>
