<svg width="38" height="32" viewBox="0 0 38 32" fill="none" xmlns="http://www.w3.org/2000/svg">
<path d="M34.0417 25.0693H10.2917C9.84833 25.0693 9.5 24.779 9.5 24.4096V11.2152C9.5 10.8458 9.84833 10.5555 10.2917 10.5555H34.0417C34.485 10.5555 34.8333 10.8458 34.8333 11.2152V24.4096C34.8333 24.779 34.485 25.0693 34.0417 25.0693Z" fill="#F5DBA0"/>
<path d="M30.875 22.4304H7.125C6.68167 22.4304 6.33334 22.1402 6.33334 21.7707V8.57634C6.33334 8.2069 6.68167 7.91663 7.125 7.91663H30.875C31.3183 7.91663 31.6667 8.2069 31.6667 8.57634V21.7707C31.6667 22.1402 31.3183 22.4304 30.875 22.4304Z" stroke="#061425" stroke-miterlimit="10" stroke-linecap="round" stroke-linejoin="round"/>
<path d="M3.16666 23.7499H34.8333" stroke="#061425" stroke-miterlimit="10" stroke-linecap="round" stroke-linejoin="round"/>
</svg>
