<svg width="470" height="353" viewBox="0 0 470 353" fill="none" xmlns="http://www.w3.org/2000/svg">
<path opacity="0.1" d="M330.763 29.3578C330.763 31.77 332.701 33.7115 335.11 33.7115C337.519 33.7115 339.458 31.77 339.458 29.3578C339.458 26.9457 337.519 25.0042 335.11 25.0042C332.701 25.063 330.763 27.0045 330.763 29.3578ZM337.695 29.3578C337.695 30.8287 336.52 31.9465 335.11 31.9465C333.641 31.9465 332.525 30.7698 332.525 29.3578C332.525 27.887 333.7 26.7692 335.11 26.7692C336.52 26.7692 337.695 27.9458 337.695 29.3578Z" fill="#383838"/>
<path d="M181.264 60.4919H6.31193V131.761H181.264V60.4919Z" fill="#2C3744"/>
<path d="M258.556 132.137C257.745 131.824 258.244 130.51 259.056 130.822C259.869 131.198 259.369 132.45 258.556 132.137Z" fill="#F2C86B"/>
<path d="M259.118 139.27C258.056 138.832 258.743 137.142 259.805 137.581C260.868 138.018 260.18 139.708 259.118 139.27Z" fill="#F2C86B"/>
<path d="M256.306 144.902C255.244 144.464 255.931 142.774 256.994 143.212C258.056 143.65 257.368 145.34 256.306 144.902Z" fill="#F2C86B"/>
<path d="M263.679 117.683C262.868 117.37 263.367 116.056 264.179 116.369C264.992 116.744 264.492 117.996 263.679 117.683Z" fill="#F2C86B"/>
<path d="M261.742 145.84C260.68 145.402 261.367 143.713 262.429 144.151C263.491 144.589 262.804 146.279 261.742 145.84Z" fill="#F2C86B"/>
<path d="M258.556 128.257C257.745 127.944 258.244 126.63 259.056 126.943C259.869 127.318 259.369 128.57 258.556 128.257Z" fill="#F2C86B"/>
<path d="M267.678 141.585C266.616 141.146 267.303 139.457 268.365 139.895C269.428 140.333 268.74 142.022 267.678 141.585Z" fill="#F2C86B"/>
<path d="M269.866 117.683C269.053 117.37 269.553 116.056 270.366 116.369C271.178 116.744 270.678 117.996 269.866 117.683Z" fill="#F2C86B"/>
<path d="M259.868 123.627C259.056 123.314 259.556 122 260.368 122.313C261.243 122.689 260.743 124.002 259.868 123.627Z" fill="#F2C86B"/>
<path d="M264.367 125.128C263.554 124.815 264.054 123.501 264.867 123.814C265.679 124.127 265.179 125.441 264.367 125.128Z" fill="#F2C86B"/>
<path d="M263.679 131.261C262.868 130.948 263.367 129.633 264.179 129.946C264.992 130.322 264.492 131.573 263.679 131.261Z" fill="#F2C86B"/>
<path d="M265.054 137.267C263.992 136.829 264.679 135.14 265.742 135.577C266.804 136.016 266.116 137.705 265.054 137.267Z" fill="#F2C86B"/>
<path d="M224.191 128.633H147.337V131.448H224.191V128.633Z" fill="#E7A614"/>
<path d="M224.191 137.018H147.337V139.833H224.191V137.018Z" fill="#E7A614"/>
<path d="M224.191 145.465H172.08V148.281H224.191V145.465Z" fill="#E7A614"/>
<path d="M224.191 153.85H172.08V156.666H224.191V153.85Z" fill="#E7A614"/>
<path d="M224.19 162.296H195.635V165.112H224.19V162.296Z" fill="#E7A614"/>
<path d="M224.19 170.68H195.635V173.496H224.19V170.68Z" fill="#E7A614"/>
<path d="M224.19 179.065H181.264V181.881H224.19V179.065Z" fill="#E7A614"/>
<path d="M224.19 187.512H181.264V190.328H224.19V187.512Z" fill="#E7A614"/>
<path d="M224.19 195.897H181.264V198.713H224.19V195.897Z" fill="#E7A614"/>
<path d="M224.19 204.344H181.264V207.16H224.19V204.344Z" fill="#E7A614"/>
<path d="M224.19 212.729H181.264V215.545H224.19V212.729Z" fill="#E7A614"/>
<path d="M234.062 246.017L233.5 245.892C200.385 237.383 166.768 237.383 133.653 245.892L133.09 246.017V88.0864L133.402 87.9611C166.706 75.572 200.509 75.572 233.813 87.9611L234.125 88.0864V246.017H234.062ZM183.576 238.572C200.134 238.572 216.692 240.636 233.188 244.828V88.7748C200.259 76.5733 166.956 76.5733 134.028 88.7748V244.828C150.398 240.699 167.019 238.572 183.576 238.572Z" fill="#2A4A66"/>
<path d="M334.16 246.017L333.598 245.892C300.482 237.383 266.866 237.383 233.75 245.892L233.188 246.017V88.0864L233.5 87.9611C266.803 75.572 300.607 75.572 333.91 87.9611L334.222 88.0864V124.441C334.222 124.691 334.035 124.941 333.722 124.941C333.41 124.941 333.222 124.754 333.222 124.441V88.7124C300.294 76.511 266.991 76.511 234.062 88.7124V244.766C266.991 236.444 300.294 236.444 333.222 244.766V137.518C333.222 137.268 333.41 137.018 333.722 137.018C334.035 137.018 334.222 137.205 334.222 137.518V246.017H334.16Z" fill="#2A4A66"/>
<path d="M121.531 258.532V100.601L121.843 100.476C125.655 99.0365 129.528 97.7851 133.34 96.659C133.59 96.5961 133.84 96.7214 133.902 96.9714C133.965 97.2221 133.84 97.4721 133.59 97.5351C129.903 98.5988 126.154 99.8502 122.468 101.227V257.28C155.584 248.896 189.137 248.958 222.191 257.405C222.441 257.468 222.566 257.718 222.503 257.968C222.441 258.219 222.191 258.344 221.941 258.281C188.825 249.772 155.209 249.772 122.093 258.281L121.531 258.532Z" fill="#2A4A66"/>
<path d="M345.158 124.941C344.908 124.941 344.658 124.754 344.658 124.441V101.227C340.971 99.8502 337.223 98.5988 333.536 97.5351C333.286 97.4721 333.161 97.2221 333.224 96.9715C333.286 96.7214 333.536 96.5961 333.786 96.659C337.597 97.7851 341.471 99.0365 345.283 100.476L345.595 100.601V124.441C345.658 124.754 345.471 124.941 345.158 124.941Z" fill="#2A4A66"/>
<path d="M345.657 258.531L345.095 258.406C311.979 249.896 278.363 249.896 245.247 258.406C244.997 258.469 244.747 258.344 244.684 258.094C244.622 257.843 244.747 257.593 244.997 257.53C278.113 249.083 311.666 249.02 344.72 257.405V137.518C344.72 137.268 344.907 137.018 345.22 137.018C345.532 137.018 345.72 137.205 345.72 137.518V258.531H345.657Z" fill="#2A4A66"/>
<path d="M173.267 256.404C173.267 259.658 145.274 259.658 145.274 256.404V194.583H173.267V256.404Z" fill="#F2C86B"/>
<path d="M173.267 194.584V256.404C173.267 258.031 166.268 258.844 159.271 258.844C152.272 258.844 145.274 258.031 145.274 256.404V194.584H173.267ZM173.267 193.645H145.274C144.775 193.645 144.337 194.083 144.337 194.584V256.404C144.337 257.781 145.899 258.594 149.523 259.157C152.085 259.533 155.584 259.783 159.271 259.783C162.957 259.783 166.456 259.533 169.018 259.157C172.642 258.594 174.204 257.781 174.204 256.404V194.584C174.204 194.021 173.829 193.645 173.267 193.645Z" fill="#2A4A66"/>
<path d="M153.96 180.505L159.271 172.495L164.645 180.505H153.96Z" fill="#2C3744"/>
<path d="M159.271 172.495L173.267 193.645H145.274L159.271 172.495ZM159.271 171.557C158.958 171.557 158.646 171.745 158.458 171.995L144.524 193.081C144.337 193.394 144.337 193.769 144.462 194.02C144.65 194.333 144.962 194.521 145.274 194.521H173.267C173.641 194.521 173.954 194.333 174.079 194.02C174.267 193.707 174.204 193.332 174.016 193.081L160.02 171.932C159.895 171.682 159.583 171.557 159.271 171.557Z" fill="#2A4A66"/>
<path d="M173.267 268.731V277.554C173.267 279.744 170.58 281.558 167.206 281.558H151.273C147.961 281.558 145.212 279.806 145.212 277.554V268.731C154.209 270.796 163.519 270.859 173.267 268.731Z" fill="#E7A614"/>
<path d="M171.705 265.915C163.457 267.542 155.147 267.542 146.899 265.915C145.462 265.915 144.275 264.726 144.275 263.287C144.275 261.848 145.462 260.659 146.899 260.659C155.147 262.848 163.457 262.848 171.705 260.659C173.142 260.659 174.329 261.848 174.329 263.287C174.267 264.726 173.142 265.915 171.705 265.915Z" fill="#2C3744"/>
<path opacity="0.51" d="M162.52 117.057H150.647C150.647 114.116 148.273 111.738 145.336 111.738V99.8496C148.273 99.8496 150.647 97.4715 150.647 94.5311H162.52C162.52 97.4715 164.894 99.8496 167.831 99.8496V111.738C164.894 111.738 162.52 114.116 162.52 117.057Z" fill="#E7A614"/>
<path d="M163.27 93.0914C163.27 96.4078 165.956 99.0983 169.268 99.0983V112.489C165.956 112.489 163.27 115.179 163.27 118.496H149.898C149.898 115.179 147.212 112.489 143.9 112.489V99.0983C147.212 99.0983 149.898 96.4078 149.898 93.0914H163.27ZM163.27 92.153H149.898C149.399 92.153 148.961 92.5907 148.961 93.0914C148.961 95.9072 146.712 98.1599 143.9 98.1599C143.401 98.1599 142.963 98.5976 142.963 99.0983V112.489C142.963 112.989 143.401 113.427 143.9 113.427C146.712 113.427 148.961 115.68 148.961 118.496C148.961 118.996 149.399 119.434 149.898 119.434H163.27C163.77 119.434 164.207 118.996 164.207 118.496C164.207 115.68 166.456 113.427 169.268 113.427C169.768 113.427 170.205 112.989 170.205 112.489V99.0983C170.205 98.5976 169.768 98.1599 169.268 98.1599C166.456 98.1599 164.207 95.9072 164.207 93.0914C164.207 92.5284 163.77 92.153 163.27 92.153Z" fill="#2A4A66"/>
<path d="M224.252 99.1618H174.766V104.793H224.252V99.1618Z" fill="#E7A614"/>
<path d="M224.252 108.609H174.766V111.425H224.252V108.609Z" fill="#E7A614"/>
<path d="M165.019 181.005H153.523C153.272 181.005 153.023 180.817 153.023 180.504C153.023 180.191 153.21 180.004 153.523 180.004H165.019C165.269 180.004 165.519 180.191 165.519 180.504C165.519 180.817 165.269 181.005 165.019 181.005Z" fill="#2A4A66"/>
<path d="M273.926 160.92H249.121V163.61H273.926V160.92Z" fill="#F2C86B"/>
<path d="M287.548 164.924H249.121V167.614H287.548V164.924Z" fill="#F2C86B"/>
<path d="M281.237 173.684H249.246V178.44H281.237V173.684Z" fill="#E7A614"/>
<path d="M281.237 181.568H249.246V186.323H281.237V181.568Z" fill="#E7A614"/>
<path d="M281.237 189.452H249.246V194.208H281.237V189.452Z" fill="#E7A614"/>
<path d="M319.102 173.684H287.111V178.44H319.102V173.684Z" fill="#E7A614"/>
<path d="M319.102 181.568H287.111V186.323H319.102V181.568Z" fill="#E7A614"/>
<path d="M319.102 189.452H287.111V194.208H319.102V189.452Z" fill="#E7A614"/>
<path d="M266.804 144.901C266.804 144.901 271.99 136.829 277.738 136.829C280.675 136.829 281.675 140.959 283.862 141.209C286.048 141.459 289.173 142.899 291.359 146.466C293.546 150.032 293.671 151.283 293.671 151.283C293.671 151.283 280.925 156.853 271.615 149.281L266.804 144.901Z" fill="#F2C86B"/>
<path d="M281.612 129.509C281.612 129.509 281.737 135.39 279.05 137.268C279.05 137.268 283.299 144.526 283.799 144.025C284.299 143.524 289.422 134.452 288.485 131.761C287.548 129.07 281.612 129.509 281.612 129.509Z" fill="#AC8457"/>
<path d="M284.111 109.799C296.045 109.799 305.73 119.497 305.73 131.448C305.73 143.4 296.045 153.098 284.111 153.098C272.177 153.098 262.492 143.4 262.492 131.448C262.492 119.497 272.177 109.799 284.111 109.799ZM284.111 108.86C271.677 108.86 261.555 118.997 261.555 131.448C261.555 143.9 271.677 154.037 284.111 154.037C296.545 154.037 306.667 143.9 306.667 131.448C306.667 118.997 296.545 108.86 284.111 108.86Z" fill="#2A4A66"/>
<path d="M287.611 117.683C283.987 117.683 281.112 120.624 281.112 124.19C281.112 127.257 283.237 129.884 286.174 130.572L285.737 132.637L290.86 133.951C291.172 134.014 291.485 133.951 291.735 133.763C292.547 133.075 293.485 130.448 293.859 128.946C294.547 126.192 294.234 124.19 294.234 124.19C294.171 120.624 291.235 117.683 287.611 117.683Z" fill="#AC8457"/>
<path d="M294.796 117.433C294.796 115.932 293.61 114.743 292.11 114.743C291.86 114.743 291.61 114.805 291.36 114.868C290.86 114.242 290.11 113.804 289.236 113.804C288.173 113.804 287.299 114.367 286.861 115.243H286.799C286.299 114.617 285.549 114.18 284.674 114.18C283.862 114.18 283.112 114.555 282.612 115.18C282.3 115.056 281.988 114.993 281.675 114.993C280.238 114.993 279.114 116.056 278.988 117.495C277.489 117.495 276.302 118.684 276.302 120.187C276.302 120.249 276.302 120.311 276.302 120.374C275.302 120.75 274.552 121.751 274.552 122.877C274.552 123.315 274.677 123.753 274.864 124.128C274.115 124.629 273.552 125.442 273.552 126.443C273.552 127.507 274.177 128.446 275.114 128.884C275.114 128.946 275.114 129.072 275.114 129.134C275.114 130.636 276.302 131.825 277.801 131.825C277.989 131.825 278.176 131.825 278.363 131.762C278.863 132.388 279.613 132.826 280.488 132.826C281.175 132.826 281.8 132.576 282.3 132.137C282.8 132.763 283.55 133.139 284.362 133.139C285.862 133.139 287.049 131.95 287.049 130.448C287.049 130.323 287.049 130.261 286.986 130.135C287.548 129.635 287.923 128.884 287.923 128.07C287.923 127.632 287.799 127.257 287.673 126.944C288.173 126.443 288.486 125.755 288.486 125.004C288.486 124.629 288.423 124.254 288.236 123.941C288.299 123.815 288.423 123.69 288.486 123.565C288.798 123.69 289.11 123.753 289.423 123.753C290.423 123.753 291.298 123.19 291.797 122.376C291.86 122.376 291.922 122.376 291.985 122.376C293.484 122.376 294.672 121.187 294.672 119.686C294.672 119.373 294.609 119.123 294.547 118.81C294.609 118.371 294.796 117.934 294.796 117.433Z" fill="#2A4A66"/>
<path d="M288.547 133.389L285.673 132.637L287.235 137.393C287.298 137.393 288.485 134.952 288.547 133.389Z" fill="#964D17"/>
<path d="M293.797 125.817C293.797 125.817 294.796 128.007 294.984 128.32C295.109 128.633 294.547 129.509 293.922 129.321C293.297 129.071 292.61 128.758 292.61 128.758L293.797 125.817Z" fill="#AC8457"/>
<path d="M153.96 193.582H153.023V247.644H153.96V193.582Z" fill="#2A4A66"/>
<path d="M165.081 205.095H164.143V259.156H165.081V205.095Z" fill="#2A4A66"/>
<path d="M415.514 186.074H372.588V188.89H415.514V186.074Z" fill="#E7A614"/>
<path d="M415.514 194.521H372.588V197.337H415.514V194.521Z" fill="#E7A614"/>
<path d="M415.514 202.905H372.588V205.721H415.514V202.905Z" fill="#E7A614"/>
<path d="M415.514 211.352H372.588V214.167H415.514V211.352Z" fill="#E7A614"/>
<path d="M415.514 219.737H372.588V222.552H415.514V219.737Z" fill="#E7A614"/>
<path d="M118.094 79.0761H22.8076V85.396H118.094V79.0761Z" fill="#E7A614"/>
<path d="M118.094 91.3405H22.8076V97.6604H118.094V91.3405Z" fill="#E7A614"/>
<path d="M64.672 114.804H34.18C32.8679 114.804 31.7432 113.741 31.7432 112.365V110.988C31.7432 109.674 32.8054 108.548 34.18 108.548H64.7343C66.0462 108.548 67.1712 109.611 67.1712 110.988V112.365C67.1084 113.741 66.0462 114.804 64.672 114.804Z" fill="#F2C86B"/>
<path d="M106.722 114.804H76.1682C74.8557 114.804 73.7312 113.741 73.7312 112.365V110.988C73.7312 109.674 74.7934 108.548 76.1682 108.548H106.722C108.034 108.548 109.159 109.611 109.159 110.988V112.365C109.159 113.741 108.034 114.804 106.722 114.804Z" fill="#E7A614"/>
<path d="M21.0581 49.6677C22.3349 49.6677 23.37 48.6312 23.37 47.3525C23.37 46.0739 22.3349 45.0374 21.0581 45.0374C19.7813 45.0374 18.7462 46.0739 18.7462 47.3525C18.7462 48.6312 19.7813 49.6677 21.0581 49.6677Z" fill="#E7A614"/>
<path d="M12.8109 49.6677C14.0877 49.6677 15.1227 48.6312 15.1227 47.3525C15.1227 46.0739 14.0877 45.0374 12.8109 45.0374C11.534 45.0374 10.499 46.0739 10.499 47.3525C10.499 48.6312 11.534 49.6677 12.8109 49.6677Z" fill="#F2C86B"/>
<path d="M29.2432 49.6677C30.5199 49.6677 31.555 48.6312 31.555 47.3525C31.555 46.0739 30.5199 45.0374 29.2432 45.0374C27.9664 45.0374 26.9313 46.0739 26.9313 47.3525C26.9313 48.6312 27.9664 49.6677 29.2432 49.6677Z" fill="#2C3744"/>
<path d="M149.898 56.3626H6.43712C6.18719 56.3626 5.93727 56.1748 5.93727 55.862C5.93727 55.5492 6.12468 55.424 6.43712 55.424H149.898C150.148 55.424 150.398 55.6117 150.398 55.9246C150.398 56.2374 150.148 56.3626 149.898 56.3626Z" fill="#2A4A66"/>
<path opacity="0.4" d="M449.442 314.032H373.962C378.773 310.466 379.148 306.586 373.962 302.519H449.442C453.128 305.773 453.128 309.653 449.442 314.032Z" fill="#2C3744"/>
<path d="M455.94 318.413H370.775C370.089 318.413 369.526 317.849 369.526 317.161C369.526 316.473 370.089 315.91 370.775 315.91H454.94L455.627 315.222V301.268L454.94 300.58H370.775C370.089 300.58 369.526 300.016 369.526 299.329C369.526 298.64 370.089 298.077 370.775 298.077H455.94L458.064 300.205V316.223L455.94 318.413Z" fill="#F2C86B"/>
<path d="M450.066 317.161H436.132C444.005 311.217 444.005 305.273 436.132 299.391H450.066C453.816 299.391 456.877 300.892 456.877 302.708V313.782C456.815 315.66 453.816 317.161 450.066 317.161Z" fill="#F2C86B"/>
<path opacity="0.4" d="M384.21 293.195H459.689C454.878 289.629 454.503 285.749 459.689 281.682H384.21C380.46 284.936 380.46 288.816 384.21 293.195Z" fill="#2C3744"/>
<path d="M462.813 297.576H377.649L375.524 295.449V279.43L377.649 277.303H462.813C463.5 277.303 464.063 277.866 464.063 278.554C464.063 279.242 463.5 279.805 462.813 279.805H378.711L378.023 280.494V294.447L378.711 295.136H462.875C463.563 295.136 464.125 295.699 464.125 296.387C464.125 297.075 463.5 297.576 462.813 297.576Z" fill="#E7A614"/>
<path opacity="0.4" d="M449.442 270.983H373.962C378.773 267.416 379.148 263.537 373.962 259.47H449.442C453.128 262.786 453.128 266.603 449.442 270.983Z" fill="#2C3744"/>
<path d="M455.94 275.364H370.775C370.089 275.364 369.526 274.8 369.526 274.112C369.526 273.424 370.089 272.861 370.775 272.861H454.94L455.627 272.172V258.219L454.94 257.531H370.775C370.089 257.531 369.526 256.968 369.526 256.279C369.526 255.591 370.089 255.028 370.775 255.028H455.94L458.064 257.155V273.173L455.94 275.364Z" fill="#F2C86B"/>
<path d="M450.066 274.112H436.132C444.005 268.167 444.005 262.223 436.132 256.341H450.066C453.816 256.341 456.877 257.843 456.877 259.657V270.732C456.815 272.61 453.816 274.112 450.066 274.112Z" fill="#F2C86B"/>
<path opacity="0.4" d="M384.21 250.148H459.689C454.878 246.581 454.503 242.701 459.689 238.634H384.21C380.46 241.888 380.46 245.767 384.21 250.148Z" fill="#2C3744"/>
<path d="M462.813 254.528H377.649L375.524 252.4V236.382L377.649 234.254H462.813C463.5 234.254 464.063 234.817 464.063 235.506C464.063 236.194 463.5 236.757 462.813 236.757H378.711L378.023 237.445V251.399L378.711 252.087H462.875C463.563 252.087 464.125 252.65 464.125 253.339C464.125 254.027 463.5 254.528 462.813 254.528Z" fill="#E7A614"/>
<path d="M383.585 296.324H397.518C389.645 290.38 389.645 284.436 397.518 278.554H383.585C379.835 278.554 376.774 280.055 376.774 281.87V292.945C376.774 294.823 379.835 296.324 383.585 296.324Z" fill="#E7A614"/>
<path d="M383.585 253.276H397.518C389.645 247.332 389.645 241.387 397.518 235.506H383.585C379.835 235.506 376.774 237.007 376.774 238.822V249.897C376.774 251.774 379.835 253.276 383.585 253.276Z" fill="#E7A614"/>
<path d="M271.427 228.748H262.117C261.43 228.748 260.868 228.185 260.868 227.496C260.868 226.808 261.43 226.245 262.117 226.245H271.427C272.115 226.245 272.677 226.808 272.677 227.496C272.677 228.185 272.115 228.748 271.427 228.748Z" fill="#2C3744"/>
<path d="M306.106 228.748H296.796C296.108 228.748 295.546 228.185 295.546 227.496C295.546 226.808 296.108 226.245 296.796 226.245H306.106C306.793 226.245 307.355 226.808 307.355 227.496C307.355 228.185 306.793 228.748 306.106 228.748Z" fill="#2C3744"/>
<path d="M288.735 224.556H279.425C278.738 224.556 278.175 223.993 278.175 223.304C278.175 222.616 278.738 222.053 279.425 222.053H288.735C289.422 222.053 289.984 222.616 289.984 223.304C289.984 223.993 289.422 224.556 288.735 224.556Z" fill="#2C3744"/>
<path d="M281.924 209.726V216.733L283.923 214.731L286.173 216.921V209.726H281.924Z" fill="#F2C86B"/>
<path d="M299.295 213.919V220.926L301.357 218.862L303.606 221.114V213.919H299.295Z" fill="#F2C86B"/>
<path d="M264.617 213.919V220.926L266.679 218.862L268.928 221.114V213.919H264.617Z" fill="#F2C86B"/>
<path d="M268.553 213.042H265.054C265.054 212.166 264.366 211.478 263.491 211.478V207.974C264.366 207.974 265.054 207.286 265.054 206.41H268.553C268.553 207.286 269.24 207.974 270.115 207.974V211.478C269.24 211.478 268.553 212.166 268.553 213.042Z" fill="#E7A614"/>
<path d="M268.991 205.533C268.991 206.597 269.866 207.536 270.99 207.536V211.915C269.928 211.915 268.991 212.791 268.991 213.918H264.617C264.617 212.854 263.742 211.915 262.618 211.915V207.536C263.68 207.536 264.617 206.66 264.617 205.533H268.991ZM268.991 204.595H264.617C264.118 204.595 263.68 205.032 263.68 205.533C263.68 206.096 263.243 206.597 262.618 206.597C262.118 206.597 261.681 207.035 261.681 207.536V211.915C261.681 212.416 262.118 212.854 262.618 212.854C263.18 212.854 263.68 213.292 263.68 213.918C263.68 214.419 264.118 214.856 264.617 214.856H268.991C269.491 214.856 269.929 214.419 269.929 213.918C269.929 213.354 270.366 212.854 270.99 212.854C271.49 212.854 271.928 212.416 271.928 211.915V207.536C271.928 207.035 271.49 206.597 270.99 206.597C270.428 206.597 269.929 206.159 269.929 205.533C269.929 205.032 269.491 204.595 268.991 204.595Z" fill="#2A4A66"/>
<path d="M285.861 208.912H282.362C282.362 208.036 281.675 207.347 280.8 207.347V203.843C281.675 203.843 282.362 203.155 282.362 202.279H285.861C285.861 203.155 286.548 203.843 287.423 203.843V207.347C286.548 207.347 285.861 208.036 285.861 208.912Z" fill="#E7A614"/>
<path d="M286.298 201.404C286.298 202.468 287.173 203.406 288.298 203.406V207.786C287.236 207.786 286.298 208.662 286.298 209.788H281.925C281.925 208.725 281.05 207.786 279.925 207.786V203.406C280.987 203.406 281.925 202.53 281.925 201.404H286.298ZM286.298 200.465H281.925C281.425 200.465 280.987 200.903 280.987 201.404C280.987 201.967 280.55 202.468 279.925 202.468C279.425 202.468 278.988 202.906 278.988 203.406V207.786C278.988 208.287 279.425 208.725 279.925 208.725C280.487 208.725 280.987 209.163 280.987 209.788C280.987 210.289 281.425 210.727 281.925 210.727H286.298C286.798 210.727 287.236 210.289 287.236 209.788C287.236 209.225 287.673 208.725 288.298 208.725C288.798 208.725 289.235 208.287 289.235 207.786V203.406C289.235 202.906 288.798 202.468 288.298 202.468C287.736 202.468 287.236 202.03 287.236 201.404C287.236 200.841 286.798 200.465 286.298 200.465Z" fill="#2A4A66"/>
<path d="M303.169 213.042H299.67C299.67 212.166 298.982 211.478 298.107 211.478V207.974C298.982 207.974 299.67 207.286 299.67 206.41H303.169C303.169 207.286 303.856 207.974 304.73 207.974V211.478C303.918 211.478 303.169 212.166 303.169 213.042Z" fill="#E7A614"/>
<path d="M303.606 205.533C303.606 206.597 304.481 207.536 305.605 207.536V211.915C304.543 211.915 303.606 212.791 303.606 213.918H299.232C299.232 212.854 298.357 211.915 297.233 211.915V207.536C298.295 207.536 299.232 206.66 299.232 205.533H303.606ZM303.606 204.595H299.232C298.732 204.595 298.295 205.032 298.295 205.533C298.295 206.096 297.857 206.597 297.233 206.597C296.733 206.597 296.295 207.035 296.295 207.536V211.915C296.295 212.416 296.733 212.854 297.233 212.854C297.795 212.854 298.295 213.292 298.295 213.918C298.295 214.419 298.732 214.856 299.232 214.856H303.606C304.105 214.856 304.543 214.419 304.543 213.918C304.543 213.354 304.98 212.854 305.605 212.854C306.105 212.854 306.542 212.416 306.542 211.915V207.536C306.542 207.035 306.105 206.597 305.605 206.597C305.043 206.597 304.543 206.159 304.543 205.533C304.543 205.032 304.168 204.595 303.606 204.595Z" fill="#2A4A66"/>
<path d="M271.427 225.056H262.117C261.43 225.056 260.868 224.492 260.868 223.804C260.868 223.116 261.43 222.552 262.117 222.552H271.427C272.115 222.552 272.677 223.116 272.677 223.804C272.677 224.492 272.115 225.056 271.427 225.056Z" fill="#2C3744"/>
<path d="M288.735 220.926H279.425C278.738 220.926 278.175 220.363 278.175 219.674C278.175 218.986 278.738 218.423 279.425 218.423H288.735C289.422 218.423 289.984 218.986 289.984 219.674C289.984 220.363 289.422 220.926 288.735 220.926Z" fill="#2C3744"/>
<path d="M306.106 225.056H296.796C296.108 225.056 295.546 224.492 295.546 223.804C295.546 223.116 296.108 222.552 296.796 222.552H306.106C306.793 222.552 307.355 223.116 307.355 223.804C307.355 224.492 306.793 225.056 306.106 225.056Z" fill="#2C3744"/>
<path d="M387.084 103.666H364.84V125.942H387.084V103.666Z" fill="#F2C86B"/>
<path d="M435.383 74.2577H420.762V88.8995H435.383V74.2577Z" fill="#2C3744"/>
<path d="M435.383 97.4715H420.762V112.113H435.383V97.4715Z" fill="#2C3744"/>
<path d="M435.383 120.687H420.762V135.328H435.383V120.687Z" fill="#F2C86B"/>
<path d="M435.383 143.9H420.762V158.542H435.383V143.9Z" fill="#F2C86B"/>
<path d="M435.383 167.114H420.762V181.756H435.383V167.114Z" fill="#2C3744"/>
<path d="M387.084 140.084H364.84V162.359H387.084V140.084Z" fill="#2C3744"/>
<path d="M361.528 151.721H359.029C358.779 151.721 358.529 151.533 358.529 151.22C358.529 150.908 358.716 150.72 359.029 150.72H361.528C361.778 150.72 362.028 150.908 362.028 151.22C362.028 151.533 361.778 151.721 361.528 151.721ZM356.654 151.596C356.405 151.596 356.154 151.408 356.154 151.095V148.592C356.154 148.342 356.342 148.092 356.654 148.092C356.967 148.092 357.154 148.279 357.154 148.592V151.095C357.154 151.346 356.905 151.596 356.654 151.596ZM356.654 146.59C356.405 146.59 356.154 146.403 356.154 146.09V143.587C356.154 143.336 356.342 143.086 356.654 143.086C356.967 143.086 357.154 143.274 357.154 143.587V146.09C357.154 146.34 356.905 146.59 356.654 146.59ZM356.654 141.585C356.405 141.585 356.154 141.396 356.154 141.084V138.581C356.154 138.331 356.342 138.081 356.654 138.081C356.967 138.081 357.154 138.268 357.154 138.581V141.084C357.154 141.334 356.905 141.585 356.654 141.585ZM356.654 136.579C356.405 136.579 356.154 136.391 356.154 136.078V133.575C356.154 133.325 356.342 133.075 356.654 133.075C356.967 133.075 357.154 133.262 357.154 133.575V136.078C357.154 136.329 356.905 136.579 356.654 136.579ZM356.654 131.573C356.405 131.573 356.154 131.385 356.154 131.072V128.57C356.154 128.319 356.342 128.069 356.654 128.069C356.967 128.069 357.154 128.257 357.154 128.57V131.072C357.154 131.322 356.905 131.573 356.654 131.573ZM356.654 126.568C356.405 126.568 356.154 126.38 356.154 126.067V123.564C356.154 123.313 356.342 123.063 356.654 123.063C356.967 123.063 357.154 123.251 357.154 123.564V126.067C357.154 126.317 356.905 126.568 356.654 126.568ZM356.654 121.561C356.405 121.561 356.154 121.374 356.154 121.061V118.558C356.154 118.308 356.342 118.057 356.654 118.057C356.967 118.057 357.154 118.245 357.154 118.558V121.061C357.154 121.311 356.905 121.561 356.654 121.561ZM356.654 116.556C356.405 116.556 356.154 116.368 356.154 116.055V114.804C356.154 114.554 356.342 114.303 356.654 114.303H357.904C358.154 114.303 358.404 114.491 358.404 114.804C358.404 115.117 358.216 115.305 357.904 115.305H357.092V116.055C357.154 116.306 356.905 116.556 356.654 116.556ZM362.903 115.305H360.403C360.153 115.305 359.903 115.117 359.903 114.804C359.903 114.491 360.091 114.303 360.403 114.303H362.903C363.153 114.303 363.402 114.491 363.402 114.804C363.402 115.117 363.215 115.305 362.903 115.305Z" fill="#2A4A66"/>
<path d="M417.325 105.293H409.64V81.1406H416.388C416.637 81.1406 416.888 81.3282 416.888 81.6412C416.888 81.9542 416.7 82.1419 416.388 82.1419H410.577V104.417H417.325C417.575 104.417 417.825 104.605 417.825 104.918C417.825 105.23 417.575 105.293 417.325 105.293Z" fill="#2A4A66"/>
<path d="M405.39 128.883H402.891C402.641 128.883 402.391 128.695 402.391 128.382C402.391 128.07 402.578 127.882 402.891 127.882H405.39C405.64 127.882 405.89 128.07 405.89 128.382C405.89 128.695 405.64 128.883 405.39 128.883ZM400.392 128.883H399.33C399.08 128.883 398.83 128.695 398.83 128.445V127.006C398.83 126.755 399.017 126.505 399.33 126.505C399.579 126.505 399.83 126.693 399.83 126.943V127.882H400.454C400.704 127.882 400.954 128.07 400.954 128.382C400.954 128.695 400.641 128.883 400.392 128.883ZM399.267 124.941C399.017 124.941 398.767 124.753 398.767 124.503V122C398.767 121.75 398.955 121.5 399.204 121.5C399.455 121.5 399.704 121.687 399.704 121.937V124.44C399.767 124.753 399.517 124.941 399.267 124.941ZM399.267 119.935C399.017 119.935 398.767 119.748 398.767 119.497V116.994C398.767 116.744 398.955 116.494 399.204 116.494C399.455 116.494 399.704 116.681 399.704 116.932V119.435C399.767 119.748 399.517 119.935 399.267 119.935ZM399.267 114.929C399.017 114.929 398.767 114.741 398.767 114.491V111.989C398.767 111.738 398.955 111.488 399.204 111.488C399.455 111.488 399.704 111.676 399.704 111.926V114.429C399.767 114.741 399.517 114.929 399.267 114.929ZM399.267 109.924C399.017 109.924 398.767 109.736 398.767 109.486V106.983C398.767 106.732 398.955 106.482 399.204 106.482C399.455 106.482 399.704 106.67 399.704 106.92V109.423C399.767 109.736 399.517 109.924 399.267 109.924ZM399.267 104.918C399.017 104.918 398.767 104.73 398.767 104.48V101.977C398.767 101.727 398.955 101.476 399.204 101.476C399.455 101.476 399.704 101.664 399.704 101.915V104.417C399.767 104.73 399.517 104.918 399.267 104.918ZM399.267 99.912C399.017 99.912 398.767 99.7243 398.767 99.4742V96.9715C398.767 96.7208 398.955 96.4708 399.267 96.4708C399.517 96.4708 399.767 96.6585 399.767 96.9085V99.4119C399.704 99.7243 399.517 99.912 399.267 99.912ZM399.267 94.9064C399.017 94.9064 398.767 94.7187 398.767 94.4687V93.2173C398.767 93.092 398.83 92.9667 398.893 92.9043C398.955 92.8414 399.08 92.779 399.204 92.779H400.454C400.704 92.779 400.954 92.9667 400.954 93.2797C400.954 93.5927 400.767 93.7803 400.454 93.7803H399.642V94.5311C399.704 94.7187 399.517 94.9064 399.267 94.9064ZM405.515 93.655H403.016C402.766 93.655 402.516 93.4673 402.516 93.1544C402.516 92.8414 402.704 92.6537 403.016 92.6537H405.515C405.765 92.6537 406.015 92.8414 406.015 93.1544C406.015 93.4673 405.765 93.655 405.515 93.655Z" fill="#2A4A66"/>
<path d="M416.826 151.722H409.14L409.328 127.945H416.076C416.326 127.945 416.576 128.133 416.576 128.446C416.576 128.758 416.388 128.946 416.076 128.946H410.265L410.078 150.846H416.826C417.076 150.846 417.326 151.033 417.326 151.346C417.326 151.659 417.076 151.722 416.826 151.722Z" fill="#2A4A66"/>
<path d="M351.968 131.261H330.848C330.599 131.261 330.348 131.073 330.348 130.76C330.348 130.447 330.536 130.259 330.848 130.259H351.968C352.217 130.259 352.468 130.447 352.468 130.76C352.468 131.073 352.217 131.261 351.968 131.261Z" fill="#2A4A66"/>
<path d="M396.893 115.305H388.833C388.583 115.305 388.333 115.117 388.333 114.804C388.333 114.491 388.521 114.303 388.833 114.303H396.893C397.143 114.303 397.393 114.491 397.393 114.804C397.393 115.117 397.143 115.305 396.893 115.305Z" fill="#2A4A66"/>
<path d="M407.14 151.722H388.833C388.583 151.722 388.333 151.534 388.333 151.221C388.333 150.909 388.521 150.721 388.833 150.721H407.14C407.391 150.721 407.64 150.909 407.64 151.221C407.64 151.534 407.391 151.722 407.14 151.722Z" fill="#2A4A66"/>
<path d="M418.887 174.936H416.388C416.137 174.936 415.888 174.749 415.888 174.436C415.888 174.123 416.075 173.935 416.388 173.935H418.887C419.137 173.935 419.387 174.123 419.387 174.436C419.387 174.749 419.137 174.936 418.887 174.936ZM413.888 174.936H411.389C411.139 174.936 410.889 174.749 410.889 174.436C410.889 174.123 411.077 173.935 411.389 173.935H413.888C414.138 173.935 414.388 174.123 414.388 174.436C414.388 174.749 414.138 174.936 413.888 174.936ZM409.577 174.248C409.327 174.248 409.077 174.06 409.077 173.747V171.244C409.077 170.994 409.264 170.744 409.577 170.744C409.889 170.744 410.077 170.931 410.077 171.244V173.747C410.077 173.997 409.826 174.248 409.577 174.248ZM409.577 169.242C409.327 169.242 409.077 169.054 409.077 168.742V166.238C409.077 165.988 409.264 165.738 409.577 165.738C409.889 165.738 410.077 165.926 410.077 166.238V168.742C410.077 168.992 409.826 169.242 409.577 169.242ZM409.577 164.236C409.327 164.236 409.077 164.049 409.077 163.736V161.233C409.077 160.983 409.264 160.732 409.577 160.732C409.889 160.732 410.077 160.92 410.077 161.233V163.736C410.077 163.986 409.826 164.236 409.577 164.236ZM409.577 159.231C409.327 159.231 409.077 159.043 409.077 158.73V156.227C409.077 155.977 409.264 155.727 409.577 155.727C409.889 155.727 410.077 155.914 410.077 156.227V158.73C410.077 158.98 409.826 159.231 409.577 159.231ZM409.577 154.225C409.327 154.225 409.077 154.037 409.077 153.724V151.221C409.077 150.971 409.264 150.721 409.577 150.721C409.889 150.721 410.077 150.909 410.077 151.221V153.724C410.077 153.974 409.826 154.225 409.577 154.225Z" fill="#2A4A66"/>
<path d="M313.604 128.195L314.166 130.072H316.103L314.541 131.199L315.166 133.013L313.604 131.887L312.042 133.013L312.604 131.199L311.042 130.072H312.979L313.604 128.195Z" fill="#E7A614"/>
<path d="M428.072 76.4474L429.384 80.3899H433.446L430.134 82.8303L431.384 86.7097L428.072 84.2693L424.761 86.7097L426.01 82.8303L422.699 80.3899H426.823L428.072 76.4474Z" fill="#E7A614"/>
<path d="M428.072 99.6613L429.384 103.604H433.446L430.134 106.044L431.384 109.924L428.072 107.483L424.761 109.924L426.01 106.044L422.699 103.604H426.823L428.072 99.6613Z" fill="#E7A614"/>
<path d="M428.072 122.939L429.384 126.818H433.446L430.134 129.259L431.384 133.138L428.072 130.698L424.761 133.138L426.01 129.259L422.699 126.818H426.823L428.072 122.939Z" fill="#E7A614"/>
<path d="M428.072 146.153L429.384 150.032H433.446L430.134 152.472L431.384 156.352L428.072 153.912L424.761 156.352L426.01 152.472L422.699 150.032H426.823L428.072 146.153Z" fill="#E7A614"/>
<path d="M428.072 169.366L429.384 173.246H433.446L430.134 175.686L431.384 179.566L428.072 177.125L424.761 179.566L426.01 175.686L422.699 173.246H426.823L428.072 169.366Z" fill="#E7A614"/>
<path d="M319.852 128.195L320.477 130.072H322.414L320.852 131.199L321.414 133.013L319.852 131.887L318.29 133.013L318.915 131.199L317.353 130.072H319.29L319.852 128.195Z" fill="#E7A614"/>
<path d="M326.1 128.195L326.725 130.072H328.662L327.1 131.199L327.662 133.013L326.1 131.887L324.538 133.013L325.163 131.199L323.601 130.072H325.538L326.1 128.195Z" fill="#E7A614"/>
<path opacity="0.3" d="M385.147 108.609H367.027V110.549H385.147V108.609Z" fill="white"/>
<path opacity="0.3" d="M385.147 112.489H367.027V114.428H385.147V112.489Z" fill="white"/>
<path opacity="0.3" d="M379.336 117.057H367.027V121.124H379.336V117.057Z" fill="white"/>
<path opacity="0.3" d="M385.147 144.964H367.027V146.903H385.147V144.964Z" fill="white"/>
<path opacity="0.3" d="M385.147 148.907H367.027V150.846H385.147V148.907Z" fill="white"/>
<path opacity="0.3" d="M379.336 153.473H367.027V157.54H379.336V153.473Z" fill="white"/>
<path opacity="0.91" d="M39.5517 301.794C39.6198 298.581 37.074 295.921 33.8654 295.853C30.6567 295.785 28.0004 298.334 27.9322 301.547C27.864 304.76 30.4098 307.421 33.6185 307.489C36.8271 307.557 39.4835 305.007 39.5517 301.794Z" fill="#2C3744"/>
<path opacity="0.91" d="M33.8046 308.401C27.1814 308.464 21.8704 313.094 21.8704 318.788L45.8638 318.601C45.8014 312.969 40.4278 308.401 33.8046 308.401Z" fill="#2C3744"/>
<path opacity="0.1" d="M399.58 331.991H372.963V344.067H399.58C400.955 344.067 400.955 331.991 399.58 331.991Z" fill="#383838"/>
<path opacity="0.1" d="M372.963 331.991L367.339 335.682L363.903 337.998L372.963 344.067V331.991Z" fill="#383838"/>
<path opacity="0.1" d="M404.891 344.067H408.703C409.64 344.067 410.39 342.878 410.39 341.439V334.556C410.39 333.117 409.64 331.928 408.703 331.928H404.891C405.829 336.183 405.766 340.187 404.891 344.067Z" fill="#383838"/>
<path opacity="0.1" d="M401.455 332.679C402.392 336.245 402.392 339.812 401.455 343.379C401.455 344.004 401.955 344.505 402.579 344.505C403.204 344.505 403.704 344.004 403.704 343.379C404.392 339.812 404.392 336.245 403.704 332.679C403.704 332.054 403.204 331.553 402.579 331.553C401.955 331.553 401.455 332.054 401.455 332.679Z" fill="#383838"/>
<path opacity="0.1" d="M35.0541 229.686L33.0547 230.249C30.3679 231.063 27.5562 229.498 26.7439 226.808L22.87 213.793L23.3698 213.73C24.3696 213.417 24.9319 212.354 24.682 211.352L24.6195 211.165C24.307 210.163 23.2448 209.6 22.2452 209.851L16.7466 211.478C15.7469 211.791 15.1846 212.854 15.4345 213.855L15.497 214.043C15.8094 215.044 16.8716 215.607 17.8713 215.357L18.4961 215.169L22.3701 228.184C23.1824 230.875 21.6203 233.69 18.9335 234.504L16.9966 235.067C14.1848 235.88 12.6227 238.884 13.56 241.637C14.1223 243.389 15.9969 244.39 17.8088 243.827L39.2405 237.445C40.99 236.944 42.0522 235.067 41.6149 233.252C40.8026 230.499 37.8659 228.872 35.0541 229.686Z" fill="#383838"/>
<path opacity="0.1" d="M433.509 49.6056L431.196 48.667C428.072 47.4155 426.51 43.849 427.76 40.7204L433.821 25.5781L434.383 25.7658C435.57 26.2664 436.883 25.6406 437.382 24.4518L437.445 24.2641C437.945 23.0752 437.32 21.7612 436.132 21.2607L429.697 18.6952C428.51 18.1946 427.198 18.8204 426.698 20.0092L426.635 20.1969C426.135 21.3858 426.76 22.6998 427.947 23.2003L428.697 23.5132L422.636 38.6556C421.387 41.7841 417.825 43.3484 414.701 42.097L412.451 41.221C409.203 39.907 405.516 41.5339 404.266 44.8501C403.517 46.915 404.579 49.2927 406.64 50.1062L431.634 60.0553C433.696 60.8684 436.07 59.93 436.945 57.865C438.32 54.6113 436.757 50.857 433.509 49.6056Z" fill="#383838"/>
<path opacity="0.1" d="M89.9139 161.796L87.4147 177.251C86.9147 177.063 86.3525 176.875 85.7903 176.75C83.2282 176.312 80.9786 177.376 80.6667 179.066C80.4164 180.755 82.2282 182.445 84.7903 182.882C87.0399 183.258 89.0391 182.507 89.7265 181.13C89.9762 180.88 90.1636 180.567 90.2265 180.192L91.7258 170.681L102.348 172.37L101.223 179.378C100.723 179.19 100.161 179.003 99.5988 178.877C97.0368 178.44 94.7878 179.503 94.4753 181.193C94.225 182.882 96.0374 184.572 98.5989 185.01C100.848 185.385 102.848 184.634 103.535 183.258C103.785 183.008 103.973 182.695 104.035 182.319L106.909 164.361L89.9139 161.796ZM92.288 167.552L92.6005 165.55L103.223 167.24L102.911 169.242L92.288 167.552Z" fill="#383838"/>
<path opacity="0.1" d="M56.1108 174.998C58.5955 174.998 60.6094 172.981 60.6094 170.493C60.6094 168.004 58.5955 165.988 56.1108 165.988C53.6262 165.988 51.612 168.004 51.612 170.493C51.612 172.981 53.6262 174.998 56.1108 174.998Z" fill="#383838"/>
<path opacity="0.1" d="M15.747 167.677C18.2317 167.677 20.2458 165.661 20.2458 163.172C20.2458 160.684 18.2317 158.667 15.747 158.667C13.2624 158.667 11.2483 160.684 11.2483 163.172C11.2483 165.661 13.2624 167.677 15.747 167.677Z" fill="#383838"/>
<path opacity="0.1" d="M34.3045 193.582C36.7891 193.582 38.8033 191.565 38.8033 189.077C38.8033 186.589 36.7891 184.572 34.3045 184.572C31.8199 184.572 29.8057 186.589 29.8057 189.077C29.8057 191.565 31.8199 193.582 34.3045 193.582Z" fill="#383838"/>
<path opacity="0.1" d="M36.8668 170.555C39.3514 170.555 41.3656 168.539 41.3656 166.051C41.3656 163.562 39.3514 161.545 36.8668 161.545C34.3822 161.545 32.368 163.562 32.368 166.051C32.368 168.539 34.3822 170.555 36.8668 170.555Z" fill="#383838"/>
<path opacity="0.1" d="M65.189 150.46C67.6736 150.46 69.6881 148.443 69.6881 145.955C69.6881 143.467 67.6736 141.45 65.189 141.45C62.7045 141.45 60.6905 143.467 60.6905 145.955C60.6905 148.443 62.7045 150.46 65.189 150.46Z" fill="#383838"/>
<path opacity="0.1" d="M44.0327 161.75C43.8462 161.769 43.7155 161.72 43.6341 161.54C43.4842 161.304 43.5207 161.048 43.7565 160.898L58.9486 149.831C59.1842 149.681 59.4391 149.717 59.589 149.953C59.7394 150.189 59.7023 150.444 59.4668 150.595L44.2127 161.669C44.2191 161.731 44.157 161.738 44.0327 161.75Z" fill="#383838"/>
<path opacity="0.1" d="M34.854 182.177C34.6926 182.081 34.6487 181.91 34.6048 181.739L35.227 173.311C35.2467 173.031 35.4815 172.879 35.7065 172.868C35.9853 172.887 36.1367 173.122 36.1489 173.348L35.5804 181.807C35.5607 182.086 35.3259 182.238 35.1009 182.25C34.9615 182.24 34.9077 182.209 34.854 182.177Z" fill="#383838"/>
<path opacity="0.1" d="M48.9882 169.492C48.9257 169.492 48.9257 169.492 48.8632 169.492L43.4272 168.177C43.1773 168.115 42.9898 167.864 43.0523 167.614C43.1148 167.364 43.3647 167.239 43.6146 167.239L49.0507 168.553C49.3006 168.616 49.4881 168.866 49.4256 169.116C49.4256 169.303 49.2381 169.492 48.9882 169.492Z" fill="#383838"/>
<path opacity="0.1" d="M28.4933 165.925C28.4308 165.925 28.4308 165.925 28.3683 165.925L22.9323 164.612C22.6824 164.549 22.4949 164.299 22.5574 164.048C22.6199 163.798 22.8698 163.673 23.1197 163.673L28.5557 164.987C28.8057 165.049 28.9931 165.299 28.9307 165.55C28.9307 165.8 28.7432 165.925 28.4933 165.925Z" fill="#383838"/>
<path opacity="0.1" d="M245.747 327.297L194.073 306.523L205.383 278.303L257.056 299.077L245.747 327.297ZM201.071 303.52L242.747 320.226L249.995 302.081L208.319 285.374L201.071 303.52Z" fill="#383838"/>
<path opacity="0.1" d="M242.873 337.81L188.888 316.16C187.514 315.597 186.826 314.032 187.388 312.656C187.951 311.28 189.513 310.591 190.888 311.154L244.873 332.804C246.247 333.367 246.934 334.931 246.372 336.308C245.81 337.685 244.248 338.373 242.873 337.81Z" fill="#383838"/>
<path opacity="0.1" d="M384.709 65.9357L351.28 76.9481L345.282 58.74L378.711 47.7274L384.709 65.9357ZM353.468 72.6309L380.397 63.7459L376.523 51.9822L349.594 60.8672L353.468 72.6309Z" fill="#383838"/>
<path opacity="0.1" d="M387.584 72.1932L352.656 83.7063C351.781 84.0193 350.781 83.5186 350.531 82.6426C350.281 81.7666 350.719 80.7658 351.593 80.5152L386.521 69.0021C387.396 68.6891 388.396 69.1898 388.646 70.0658C388.958 70.9418 388.458 71.9432 387.584 72.1932Z" fill="#383838"/>
<path opacity="0.1" d="M160.833 309.527L153.96 311.467L152.273 307.525C152.086 306.774 149.211 303.02 147.337 304.397C146.712 304.897 146.462 305.71 146.712 306.462L148.274 312.093C148.649 313.345 147.899 314.658 146.649 315.034L146.524 314.596C146.337 314.033 145.775 313.657 145.149 313.845L141.213 314.971C140.651 315.159 140.276 315.722 140.464 316.348L144.15 329.363C144.338 329.926 144.9 330.301 145.525 330.113L149.461 328.987C150.023 328.799 150.398 328.236 150.211 327.61L150.086 327.173L152.335 326.547C153.148 326.297 154.085 326.422 154.834 326.86L154.96 326.922C156.084 327.548 165.144 326.359 166.769 324.232C167.456 323.356 167.831 322.417 167.644 321.604L164.832 311.717C164.27 310.028 162.52 309.027 160.833 309.527Z" fill="#383838"/>
<path opacity="0.1" d="M223.753 35.3377L216.88 37.2774L215.192 33.3354C215.005 32.5845 212.131 28.8303 210.256 30.2069C209.632 30.7074 209.382 31.5208 209.632 32.2717L211.194 37.9031C211.569 39.1546 210.819 40.4686 209.569 40.844L209.444 40.406C209.257 39.8429 208.695 39.4675 208.07 39.6551L204.133 40.7814C203.571 40.9692 203.196 41.5323 203.384 42.158L207.07 55.1729C207.257 55.736 207.82 56.1115 208.444 55.9238L212.381 54.7975C212.943 54.6097 213.318 54.0466 213.131 53.4209L213.006 52.9829L215.255 52.3572C216.067 52.1069 217.005 52.2321 217.754 52.6701L217.88 52.7326C219.004 53.3583 228.064 52.1695 229.689 50.042C230.376 49.166 230.751 48.2274 230.564 47.414L227.689 37.5277C227.189 35.8383 225.44 34.8997 223.753 35.3377Z" fill="#383838"/>
<path opacity="0.1" d="M453.752 329.926L450.565 330.802L449.816 328.987C449.691 328.674 448.441 326.922 447.566 327.548C447.254 327.735 447.192 328.174 447.254 328.487L448.004 331.052C448.191 331.615 447.817 332.241 447.254 332.428L447.191 332.241C447.129 331.991 446.817 331.803 446.566 331.865L444.755 332.366C444.505 332.428 444.317 332.741 444.38 332.991L446.067 338.998C446.129 339.249 446.442 339.437 446.692 339.374L448.503 338.874C448.754 338.811 448.941 338.498 448.879 338.248L448.816 338.06L449.878 337.747C450.253 337.622 450.691 337.685 451.003 337.872H451.065C451.565 338.185 455.752 337.622 456.502 336.621C456.814 336.245 457.002 335.807 456.876 335.432L455.564 330.927C455.314 330.113 454.502 329.675 453.752 329.926Z" fill="#383838"/>
<path opacity="0.1" d="M318.077 315.681C318.103 311.534 314.767 308.151 310.626 308.124C306.485 308.098 303.107 311.438 303.081 315.585C303.054 319.732 306.39 323.115 310.531 323.142C314.672 323.168 318.05 319.828 318.077 315.681Z" fill="#383838"/>
<path opacity="0.1" d="M310.792 324.356C302.293 324.544 295.483 330.614 295.67 337.997L326.537 337.309C326.35 329.988 319.289 324.169 310.792 324.356Z" fill="#383838"/>
<path opacity="0.1" d="M276.676 286.25L265.179 279.868L264.492 279.555L263.742 284.248C263.43 286.312 264.805 288.252 266.866 288.565L285.174 291.506C287.236 291.819 289.173 290.443 289.485 288.377L290.297 283.184H289.985L276.676 286.25Z" fill="#383838"/>
<path opacity="0.1" d="M298.545 293.071L300.357 281.871L302.981 280.807L291.609 275.175L265.804 270.983L254.057 272.86L265.491 277.053L276.801 284.874L290.36 281.057L298.67 282.496L296.983 292.821C296.233 293.008 295.608 293.634 295.421 294.51C295.233 295.636 296.045 296.7 297.17 296.888C298.295 297.075 299.357 296.325 299.545 295.136C299.794 294.323 299.295 293.509 298.545 293.071Z" fill="#383838"/>
<path opacity="0.1" d="M106.222 215.419L81.4786 203.218C80.6038 202.78 79.5416 203.155 79.1045 204.031L58.9221 244.953C58.4849 245.829 58.8599 246.893 59.7346 247.331L84.4778 259.532C85.3526 259.97 86.4148 259.594 86.8525 258.719L107.034 217.797C107.471 216.921 107.097 215.857 106.222 215.419ZM85.2274 253.901C84.7903 254.777 83.7281 255.152 82.8534 254.714L64.5457 245.704C63.6709 245.266 63.2961 244.202 63.7338 243.326L80.729 208.849C81.1661 207.973 82.2283 207.598 83.103 208.036L86.977 209.913L86.4771 210.976C86.04 211.852 86.4148 212.916 87.2896 213.354L94.725 217.046C95.5998 217.484 96.662 217.109 97.0997 216.233L97.599 215.169L101.473 217.046C102.348 217.484 102.723 218.548 102.286 219.424L85.2274 253.901Z" fill="#383838"/>
<path opacity="0.1" d="M75.9185 245.517C77.1958 245.517 78.2303 244.48 78.2303 243.202C78.2303 241.923 77.1958 240.886 75.9185 240.886C74.6419 240.886 73.6067 241.923 73.6067 243.202C73.6067 244.48 74.6419 245.517 75.9185 245.517Z" fill="#383838"/>
<path opacity="0.1" d="M351.468 21.1347C352.219 21.1347 352.843 20.5089 352.843 19.7581C352.843 19.0072 352.219 18.3815 351.468 18.3815H350.344C350.282 18.0687 350.219 17.8184 350.156 17.5055L351.156 17.0675C351.844 16.7547 352.156 15.9412 351.844 15.253C351.531 14.5647 350.719 14.2518 350.031 14.5647L349.032 15.0027C348.969 14.8775 348.845 14.7524 348.782 14.6272L349.532 13.8764C350.094 13.3132 350.094 12.4372 349.532 11.8741C348.969 11.3109 348.094 11.3109 347.532 11.8741L346.782 12.6249C346.532 12.4372 346.282 12.3121 346.033 12.1244L346.408 11.1232C346.657 10.4349 346.345 9.62149 345.595 9.30867C344.908 9.05833 344.096 9.37121 343.783 10.1221L343.408 11.1232C343.283 11.0607 343.096 11.0607 342.971 11.0607V9.87176C342.971 9.12093 342.346 8.49524 341.597 8.49524C340.846 8.49524 340.222 9.12093 340.222 9.87176V10.9981C339.972 11.0607 339.66 11.1232 339.409 11.1858L338.972 10.1846C338.66 9.49635 337.847 9.18347 337.16 9.43381C336.41 9.74662 336.098 10.5601 336.41 11.2483L336.848 12.2495C336.723 12.3121 336.598 12.4372 336.41 12.5624L335.66 11.8115C335.098 11.2483 334.223 11.2483 333.661 11.8115C333.098 12.3746 333.098 13.2507 333.661 13.8138L334.411 14.5647C334.348 14.6898 334.286 14.7524 334.223 14.8149L333.286 14.3769C332.599 14.0641 331.787 14.3769 331.412 15.0652C331.099 15.7535 331.412 16.5669 332.099 16.9424L333.098 17.3804C333.036 17.6932 332.911 18.0061 332.911 18.3815H331.787C331.037 18.3815 330.412 19.0072 330.412 19.7581C330.412 20.5089 331.037 21.1347 331.787 21.1347H332.911C332.974 21.4475 333.036 21.6978 333.098 22.0107L332.099 22.4487C331.412 22.7616 331.099 23.575 331.412 24.2633C331.724 24.9516 332.536 25.2644 333.224 24.9516L334.223 24.5136C334.286 24.6387 334.411 24.7638 334.473 24.889L333.723 25.6399C333.161 26.203 333.161 27.079 333.723 27.6421C334.286 28.2053 335.161 28.2053 335.723 27.6421L336.472 26.8912C336.723 27.079 336.972 27.2041 337.223 27.3919L336.848 28.393C336.598 29.0813 336.91 29.8947 337.66 30.2076C338.347 30.4578 339.16 30.145 339.472 29.3941L339.847 28.393C339.972 28.4556 340.159 28.4556 340.284 28.4556V29.5819C340.284 30.3327 340.909 30.9584 341.659 30.9584C342.408 30.9584 343.034 30.3327 343.034 29.5819V28.4556C343.283 28.393 343.596 28.3304 343.846 28.2678L344.283 29.269C344.596 29.9573 345.408 30.2702 346.095 30.0198C346.782 29.707 347.095 28.8936 346.845 28.2053L346.408 27.2041C346.533 27.1416 346.657 27.0164 346.845 26.8912L347.595 27.6421C348.157 28.2053 349.032 28.2053 349.594 27.6421C350.156 27.079 350.156 26.203 349.594 25.6399L348.845 24.889C348.907 24.7638 348.969 24.7012 349.032 24.6387L350.031 25.0767C350.719 25.3895 351.531 25.0767 351.906 24.3884C352.219 23.7001 351.906 22.8867 351.219 22.5113L350.219 22.0733C350.282 21.7604 350.406 21.4475 350.406 21.0721H351.468V21.1347ZM347.782 19.6955C347.782 23.0744 345.033 25.8275 341.659 25.8275C338.285 25.8275 335.535 23.0744 335.535 19.6955C335.535 16.3167 338.285 13.5635 341.659 13.5635C345.033 13.5635 347.782 16.3167 347.782 19.6955Z" fill="#383838"/>
<path opacity="0.1" d="M337.035 19.6954C337.035 22.2609 339.097 24.3257 341.658 24.3257C344.22 24.3257 346.282 22.2609 346.282 19.6954C346.282 17.13 344.22 15.0651 341.658 15.0651C339.097 15.1277 337.035 17.1926 337.035 19.6954ZM344.408 19.6954C344.408 21.2597 343.158 22.4486 341.658 22.4486C340.097 22.4486 338.909 21.1971 338.909 19.6954C338.909 18.1311 340.159 16.9423 341.658 16.9423C343.158 16.9423 344.408 18.1937 344.408 19.6954Z" fill="#383838"/>
<path d="M294.171 90.3392C294.171 89.6508 293.922 89.0872 293.484 88.6495C293.922 88.2741 294.171 87.6481 294.171 86.9598C294.171 85.7714 293.359 84.8324 292.422 84.8324C286.861 86.5844 281.3 86.5844 275.739 84.8324C274.801 84.8324 273.989 85.7714 273.989 86.9598C273.989 87.6481 274.239 88.2118 274.677 88.6495C274.239 89.0248 273.989 89.6508 273.989 90.3392C273.989 91.0269 274.239 91.5906 274.677 92.0283C274.239 92.4036 273.989 93.0296 273.989 93.718C273.989 94.9064 274.801 95.8454 275.739 95.8454C276.114 95.9078 276.426 96.0331 276.801 96.0954V98.8488C276.801 100.663 278.175 102.102 279.925 102.102H288.173C289.922 102.102 291.297 100.663 291.297 98.8488V96.0954C291.672 96.0331 291.985 95.9701 292.359 95.8454C293.296 95.8454 294.109 94.9064 294.109 93.718C294.109 93.0296 293.859 92.4666 293.422 92.0283C293.922 91.5906 294.171 91.0269 294.171 90.3392Z" fill="#2C3744"/>
<path d="M284.112 39.2798C283.8 39.2798 283.55 39.2798 283.237 39.2798C269.241 39.7179 260.181 51.3562 265.242 61.8056C267.929 67.3118 271.928 75.8844 273.802 81.5783C274.927 85.0195 277.989 87.5228 281.613 87.9605C283.237 88.1482 284.799 88.1482 286.424 88.0229C290.11 87.6476 293.297 85.1448 294.484 81.6407C296.296 75.8844 300.358 67.3118 303.044 61.868C308.168 51.4187 299.045 39.843 285.049 39.3424C284.674 39.2798 284.425 39.2798 284.112 39.2798Z" fill="#FAF1D0"/>
<path d="M283.674 33.3989C282.487 33.3989 281.487 32.3978 281.487 31.2089V19.6332C281.487 18.4443 282.487 17.4431 283.674 17.4431C284.861 17.4431 285.861 18.4443 285.861 19.6332V31.2715C285.861 32.4604 284.861 33.3989 283.674 33.3989Z" fill="#F2C86B"/>
<path d="M303.419 37.0281C302.857 37.0281 302.295 36.8404 301.857 36.4024C300.982 35.5264 300.982 34.1498 301.857 33.3364L310.043 25.1395C310.917 24.2635 312.292 24.2635 313.104 25.1395C313.979 26.0155 313.979 27.3921 313.104 28.2055L304.919 36.4024C304.481 36.8404 303.981 37.0281 303.419 37.0281Z" fill="#F2C86B"/>
<path d="M319.353 56.4872H311.042C309.855 56.4872 308.855 55.486 308.855 54.2972C308.855 53.1083 309.855 52.1072 311.042 52.1072H319.353C320.539 52.1072 321.539 53.1083 321.539 54.2972C321.539 55.486 320.539 56.4872 319.353 56.4872Z" fill="#F2C86B"/>
<path d="M263.93 37.0281C263.367 37.0281 262.805 36.8404 262.368 36.4024L254.182 28.2055C253.307 27.3295 253.307 25.9529 254.182 25.1395C255.057 24.2635 256.431 24.2635 257.244 25.1395L265.429 33.3364C266.304 34.2124 266.304 35.589 265.429 36.4024C265.054 36.8404 264.492 37.0281 263.93 37.0281Z" fill="#F2C86B"/>
<path d="M256.245 56.4872H247.934C246.747 56.4872 245.747 55.486 245.747 54.2972C245.747 53.1083 246.747 52.1072 247.934 52.1072H256.245C257.432 52.1072 258.431 53.1083 258.431 54.2972C258.431 55.486 257.432 56.4872 256.245 56.4872Z" fill="#F2C86B"/>
<path d="M181.264 42.9719H53.2364V47.1016H181.264V42.9719Z" fill="#E7A614"/>
<path d="M122.468 22.6985H6.31193V34.1491H122.468V22.6985Z" fill="#2C3744"/>
<path d="M181.265 22.6985H127.092V34.1491H181.265V22.6985Z" fill="#E7A614"/>
<path d="M122.468 330.99H6.31193V342.441H122.468V330.99Z" fill="#F2C86B"/>
<path d="M122.468 271.984H6.31193V283.435H122.468V271.984Z" fill="#F2C86B"/>
<path d="M61.9848 323.544H5.875V289.63H61.9848V323.544ZM6.81224 322.606H61.0477V290.568H6.81224V322.606Z" fill="#F2C86B"/>
<path d="M122.468 289.566H64.4211V292.57H122.468V289.566Z" fill="#E7A614"/>
<path d="M122.468 297.201H64.4211V300.204H122.468V297.201Z" fill="#E7A614"/>
<path d="M122.468 304.834H64.4211V307.838H122.468V304.834Z" fill="#E7A614"/>
<path d="M122.468 312.405H64.4211V315.408H122.468V312.405Z" fill="#E7A614"/>
<path d="M122.468 320.04H64.4211V323.043H122.468V320.04Z" fill="#E7A614"/>
</svg>
