<svg width="38" height="38" viewBox="0 0 38 38" fill="none" xmlns="http://www.w3.org/2000/svg">
<g clip-path="url(#clip0)">
<path fill-rule="evenodd" clip-rule="evenodd" d="M12.6667 22.1666L16.8467 19.38C17.2108 19.1266 17.5275 18.8258 17.765 18.4458C18.715 16.9258 19.7283 14.9941 20.5833 12.6666C21.1692 11.0675 21.565 9.56331 21.8342 8.23331C22.0558 7.12498 23.0533 6.33331 24.1933 6.33331C27.1858 6.33331 29.3708 9.13581 28.6425 12.0333L26.9167 19H34.2633C36.2267 19 37.715 20.7575 37.3825 22.6891L35.2767 35.3558C35.0233 36.8758 33.6933 38 32.1575 38H20.4883C19.5067 38 18.5408 37.7783 17.6542 37.335L12.6667 34.8333V22.1666Z" fill="#F5DBA0"/>
<path fill-rule="evenodd" clip-rule="evenodd" d="M9.5 19L13.68 16.2134C14.0442 15.96 14.3608 15.6592 14.5983 15.2792C15.5483 13.7592 16.5617 11.8275 17.4167 9.50002C18.0025 7.90085 18.3983 6.39669 18.6675 5.06669C18.8892 3.95835 19.8867 3.16669 21.0267 3.16669C24.0192 3.16669 26.2042 5.96919 25.4758 8.86669L23.75 15.8334H31.0967C33.06 15.8334 34.5483 17.5909 34.2158 19.5225L32.11 32.1892C31.8567 33.7092 30.5267 34.8334 28.9908 34.8334H17.3217C16.34 34.8334 15.3742 34.6117 14.4875 34.1684L9.5 31.6667V19Z" stroke="#221B38" stroke-miterlimit="10" stroke-linecap="round" stroke-linejoin="round"/>
<path fill-rule="evenodd" clip-rule="evenodd" d="M11.0833 38H7.91667C7.04584 38 6.33334 37.2875 6.33334 36.4167V19C6.33334 18.1292 7.04584 17.4167 7.91667 17.4167H11.0833C11.9542 17.4167 12.6667 18.1292 12.6667 19V36.4167C12.6667 37.2875 11.9542 38 11.0833 38Z" fill="#E7A614"/>
<path fill-rule="evenodd" clip-rule="evenodd" d="M7.91666 34.8333H4.75C3.87916 34.8333 3.16666 34.1208 3.16666 33.25V15.8333C3.16666 14.9625 3.87916 14.25 4.75 14.25H7.91666C8.7875 14.25 9.5 14.9625 9.5 15.8333V33.25C9.5 34.1208 8.7875 34.8333 7.91666 34.8333Z" stroke="#221B38" stroke-miterlimit="10" stroke-linecap="round" stroke-linejoin="round"/>
</g>
<defs>
<clipPath id="clip0">
<rect width="38" height="38" fill="white"/>
</clipPath>
</defs>
</svg>
