<svg width="24" height="24" viewBox="0 0 24 24" fill="none" xmlns="http://www.w3.org/2000/svg" data-reactroot="">
<path stroke-linejoin="round" stroke-linecap="round" stroke-width="0" stroke="#0b0e3c" fill="#f2c769" d="M19 22H5C3.34 22 2 20.66 2 19V5C2 3.34 3.34 2 5 2H19C20.66 2 22 3.34 22 5V19C22 20.66 20.66 22 19 22Z" transform="translate(2,2)"></path><path stroke-linejoin="round" stroke-linecap="round" stroke-width="1" stroke="#0b0e3c" fill="none" d="M19 22H5C3.34 22 2 20.66 2 19V5C2 3.34 3.34 2 5 2H19C20.66 2 22 3.34 22 5V19C22 20.66 20.66 22 19 22Z"></path>
<path stroke-linejoin="round" stroke-linecap="round" stroke-width="0" stroke="#0b0e3c" fill="#e6a714" d="M8 7.54003V16.46C8 16.87 8.44 17.13 8.79 16.93L16.73 12.47C17.09 12.27 17.09 11.74 16.73 11.53L8.79 7.07004C8.44 6.87004 8 7.13003 8 7.54003Z" transform="translate(2,2)"></path><path stroke-linejoin="round" stroke-linecap="round" stroke-width="1" stroke="#0b0e3c" fill="none" d="M8 7.54003V16.46C8 16.87 8.44 17.13 8.79 16.93L16.73 12.47C17.09 12.27 17.09 11.74 16.73 11.53L8.79 7.07004C8.44 6.87004 8 7.13003 8 7.54003Z"></path>
</svg>
