<svg width="38" height="38" viewBox="0 0 38 38" fill="none" xmlns="http://www.w3.org/2000/svg">
<path d="M34.8333 36.4167C29.2283 37.6833 24.3042 38 20.5833 38C14.8042 38 9.94334 37.2242 6.33334 36.4167C6.33334 29.4183 12.7142 23.75 20.5833 23.75C28.4525 23.75 34.8333 29.4183 34.8333 36.4167Z" fill="#E7A614"/>
<path d="M31.6667 33.25C26.0617 34.5166 21.1375 34.8333 17.4167 34.8333C11.6375 34.8333 6.77666 34.0575 3.16666 33.25C3.16666 26.2516 9.5475 20.5833 17.4167 20.5833C25.2858 20.5833 31.6667 26.2516 31.6667 33.25Z" stroke="#061425" stroke-miterlimit="10" stroke-linecap="round" stroke-linejoin="round"/>
<path d="M20.5833 19C24.0811 19 26.9167 16.1645 26.9167 12.6666C26.9167 9.16884 24.0811 6.33331 20.5833 6.33331C17.0855 6.33331 14.25 9.16884 14.25 12.6666C14.25 16.1645 17.0855 19 20.5833 19Z" fill="#F5DBA0"/>
<path d="M17.4167 15.8334C20.9144 15.8334 23.75 12.9978 23.75 9.50002C23.75 6.00222 20.9144 3.16669 17.4167 3.16669C13.9189 3.16669 11.0833 6.00222 11.0833 9.50002C11.0833 12.9978 13.9189 15.8334 17.4167 15.8334Z" stroke="#061425" stroke-miterlimit="10" stroke-linecap="round" stroke-linejoin="round"/>
<path d="M27.2333 5.85831L30.0833 8.70831L34.8333 3.95831" stroke="#061425" stroke-miterlimit="10"/>
</svg>
