<svg width="459" height="300" viewBox="0 0 459 300" fill="none" xmlns="http://www.w3.org/2000/svg">
<path fill-rule="evenodd" clip-rule="evenodd" d="M359.921 40.3592L21.2404 103.77L40.0575 204.273L86.3108 195.613L98.2303 259.276L436.911 195.866L418.03 95.0179L371.776 103.678L359.921 40.3592Z" fill="white"/>
<rect x="33.4621" y="116.229" width="322.788" height="76.265" transform="rotate(-10.6046 33.4621 116.229)" fill="black"/>
<rect x="96.8514" y="169.561" width="317.788" height="72.2737" transform="rotate(-10.6046 96.8514 169.561)" fill="#E7A614" stroke="black" stroke-width="5"/>
<path d="M101.542 160.424C110.455 158.796 115.871 153.05 114.373 144.846L114.351 144.728C113.036 137.527 107.765 135.379 98.9847 134.725C91.5086 134.199 89.5763 133.637 89.0805 130.922L89.0589 130.804C88.6925 128.797 90.2313 126.87 93.7137 126.234C97.1961 125.598 101.077 126.475 105.2 128.345L108.671 120.636C103.866 118.037 98.3865 117.086 92.366 118.185C83.9256 119.726 78.8104 125.783 80.1791 133.279L80.2007 133.397C81.6987 141.602 87.4903 142.923 96.2006 143.528C103.43 144.038 105.062 144.96 105.482 147.262L105.504 147.38C105.946 149.8 103.972 151.685 100.254 152.364C95.5317 153.226 91.2805 151.99 87.0015 149.599L82.8051 157.014C88.5714 160.535 95.2858 161.566 101.542 160.424ZM124.492 155.623L133.582 153.963L131.319 141.568L138.225 140.307C147.491 138.615 154.023 132.299 152.277 122.737L152.256 122.619C150.714 114.179 143.686 109.424 133.829 111.224L116.948 114.306L124.492 155.623ZM129.842 133.482L127.536 120.851L134.56 119.568C139.105 118.739 142.336 120.405 143.08 124.478L143.102 124.596C143.748 128.137 141.588 131.337 137.043 132.167L129.842 133.482ZM163.918 148.424L173.008 146.764L170.594 133.543L177.736 132.239L189.004 143.844L199.628 141.904L186.841 128.991C191.738 126.084 194.573 121.236 193.356 114.566L193.334 114.448C192.623 110.552 190.79 107.532 188.068 105.651C184.857 103.431 180.515 102.699 175.262 103.659L156.374 107.107L163.918 148.424ZM169.128 125.516L166.962 113.652L175.993 112.003C180.42 111.195 183.501 112.706 184.212 116.601L184.234 116.719C184.87 120.202 182.763 123.026 178.336 123.835L169.128 125.516ZM206.986 140.56L216.076 138.901L208.531 97.5838L199.442 99.2435L206.986 140.56ZM226.401 137.015L235.373 135.377L230.577 109.111L255.382 131.724L263.114 130.312L255.57 88.9949L246.598 90.6331L251.243 116.072L227.238 94.1681L218.857 95.6985L226.401 137.015ZM293.053 125.577C300.608 124.198 305.913 120.179 309.505 115.803L306.229 97.8597L288.285 101.136L289.719 108.986L298.867 107.316L299.945 113.218C297.945 115.291 295.145 116.656 291.839 117.26C284.52 118.596 278.313 113.996 276.934 106.441L276.912 106.323C275.629 99.2994 279.816 92.4968 286.426 91.2897C291.207 90.4168 294.321 91.4341 297.993 93.5082L302.457 85.5569C297.48 82.6842 292.628 81.4965 285.191 82.8544C272.678 85.1392 265.286 96.4306 267.431 108.176L267.452 108.294C269.683 120.512 280.186 127.927 293.053 125.577Z" fill="#E7A614"/>
<path d="M143.398 214.672L145.735 214.245L148.897 192.881L159.37 211.755L161.742 211.322L166.037 184.738L163.098 185.275L159.785 207.215L149.202 187.739L146.9 188.159L143.884 210.118L133.031 190.765L129.985 191.321L143.398 214.672ZM185.951 207.158C193.494 205.78 197.536 198.858 196.288 192.023L196.275 191.952C195.027 185.117 188.883 180.127 181.34 181.505C173.796 182.882 169.754 189.805 171.002 196.64L171.015 196.711C172.263 203.546 178.407 208.535 185.951 207.158ZM185.549 204.56C179.883 205.594 174.934 201.74 173.906 196.11L173.893 196.039C172.865 190.408 176.075 185.138 181.741 184.103C187.407 183.068 192.356 186.922 193.384 192.553L193.397 192.624C194.425 198.255 191.216 203.525 185.549 204.56ZM204.452 203.34L207.25 202.83L205.491 193.197L212.574 191.904L221.522 200.224L224.957 199.596L215.493 190.858C219.26 189.439 221.653 186.513 220.903 182.405L220.89 182.334C220.534 180.386 219.509 178.78 218.085 177.796C216.242 176.522 213.631 176.048 210.585 176.604L199.925 178.55L204.452 203.34ZM205.032 190.682L203.195 180.625L210.845 179.228C214.846 178.497 217.52 179.912 218.076 182.958L218.089 183.029C218.671 186.216 216.364 188.613 212.646 189.292L205.032 190.682ZM230.044 198.667L232.842 198.157L231.626 191.499L235.927 185.188L247.645 195.454L251.151 194.814L237.519 182.884L246.164 170.107L242.552 170.767L231.018 188.17L228.316 173.367L225.518 173.877L230.044 198.667ZM263.717 192.885C268.639 191.986 271.676 188.577 270.9 184.328L270.887 184.257C270.196 180.467 267.277 178.914 261.533 178.719C255.865 178.546 254.351 177.469 253.924 175.131L253.912 175.06C253.504 172.829 255.235 170.684 258.458 170.095C261.007 169.63 263.458 170.024 266.103 171.48L267.337 169.023C264.454 167.463 261.682 166.908 258.069 167.568C253.359 168.428 250.448 171.924 251.159 175.819L251.172 175.89C251.916 179.963 254.873 181.326 260.801 181.524C266.207 181.671 267.686 182.755 268.106 185.057L268.119 185.128C268.565 187.572 266.693 189.743 263.364 190.351C259.929 190.979 257.236 190.262 254.224 188.397L252.864 190.768C256.324 192.881 259.786 193.603 263.717 192.885ZM277.805 189.947L280.603 189.436L278.566 178.28L292.874 175.668L294.911 186.823L297.708 186.313L293.182 161.522L290.384 162.033L292.395 173.047L278.088 175.66L276.077 164.646L273.279 165.157L277.805 189.947ZM316.299 183.357C323.843 181.98 327.885 175.057 326.637 168.222L326.624 168.151C325.376 161.316 319.232 156.327 311.689 157.704C304.145 159.081 300.103 166.004 301.351 172.839L301.364 172.91C302.612 179.745 308.756 184.734 316.299 183.357ZM315.898 180.759C310.232 181.794 305.283 177.94 304.255 172.309L304.242 172.238C303.214 166.607 306.423 161.337 312.09 160.302C317.756 159.268 322.705 163.121 323.733 168.752L323.746 168.823C324.774 174.454 321.565 179.724 315.898 180.759ZM334.801 179.54L337.598 179.029L336.001 170.282L342.022 169.182C347.298 168.219 351.256 164.642 350.28 159.294L350.267 159.223C349.374 154.336 345.148 152.034 339.553 153.055L330.274 154.75L334.801 179.54ZM335.536 167.732L333.544 156.824L339.812 155.679C343.814 154.949 346.806 156.305 347.453 159.847L347.466 159.918C348.061 163.176 345.77 165.863 341.662 166.613L335.536 167.732ZM367.02 174.023C371.943 173.124 374.98 169.715 374.204 165.465L374.191 165.394C373.499 161.605 370.581 160.052 364.836 159.856C359.169 159.684 357.655 158.606 357.228 156.269L357.215 156.198C356.808 153.967 358.539 151.821 361.761 151.233C364.311 150.767 366.762 151.161 369.407 152.618L370.641 150.16C367.758 148.601 364.985 148.046 361.373 148.705C356.663 149.565 353.751 153.061 354.463 156.957L354.476 157.027C355.219 161.1 358.176 162.463 364.104 162.662C369.511 162.809 370.99 163.893 371.41 166.195L371.423 166.266C371.869 168.709 369.997 170.881 366.668 171.489C363.232 172.116 360.54 171.4 357.528 169.535L356.168 171.906C359.627 174.018 363.089 174.74 367.02 174.023Z" fill="black"/>
</svg>
