<svg width="97" height="73" viewBox="0 0 97 73" fill="none" xmlns="http://www.w3.org/2000/svg">
<path fill-rule="evenodd" clip-rule="evenodd" d="M62.4193 52.6628C57.6603 61.6377 48.655 68.1497 37.7907 69.2652C20.4847 71.0422 5.01494 58.4535 3.23796 41.1475C1.46097 23.8415 14.0497 8.37173 31.3557 6.59475C42.22 5.47919 52.3607 10.0253 58.8443 17.8458L91.9745 14.444L95.5495 49.2609L62.4193 52.6628Z" fill="white"/>
<rect x="53.7914" y="24.3962" width="33" height="24" transform="rotate(-5.8626 53.7914 24.3962)" fill="#061425"/>
<circle cx="34.5732" cy="37.93" r="24.5" transform="rotate(-5.8626 34.5732 37.93)" fill="#061425"/>
<path d="M51.5889 35.7819C52.3609 35.7027 52.8781 35.3359 53.227 34.8176L52.6105 34.3742C52.3098 34.7348 51.9935 34.9442 51.524 34.9925C50.9032 35.0562 50.3785 34.724 50.2048 34.0503L53.2926 33.7332C53.2907 33.6369 53.2897 33.5485 53.2807 33.461C53.1565 32.2514 52.3722 31.2703 51.0352 31.4076C49.8336 31.531 49.0834 32.6053 49.2067 33.8069L49.2084 33.8229C49.3416 35.12 50.3713 35.907 51.5889 35.7819ZM50.1315 33.4144C50.152 32.7529 50.5193 32.2568 51.1082 32.1963C51.7448 32.1309 52.1607 32.5788 52.2881 33.193L50.1315 33.4144ZM56.4077 35.2871C57.2274 35.203 57.6794 34.8269 58.0458 34.3228L57.406 33.8095C57.1355 34.1509 56.8225 34.3921 56.3689 34.4387C55.6287 34.5147 55.0502 33.9709 54.9734 33.2229L54.9717 33.2069C54.8966 32.4748 55.3517 31.8169 56.0521 31.745C56.5295 31.6959 56.862 31.8789 57.1883 32.1591L57.7269 31.4523C57.2849 31.0635 56.7613 30.8197 55.9734 30.9006C54.708 31.0305 53.8879 32.128 54.0104 33.3217L54.0121 33.3377C54.1346 34.5314 55.1583 35.4154 56.4077 35.2871ZM59.0025 34.9242L59.9655 34.8253L59.722 32.4538C59.655 31.8012 60.0049 31.3712 60.5619 31.314C61.1349 31.2552 61.4996 31.5957 61.5666 32.2483L61.8118 34.6358L62.7747 34.5369L62.4993 31.855C62.3996 30.8841 61.7852 30.3038 60.8381 30.4011C60.1856 30.4681 59.8307 30.8503 59.6002 31.268L59.369 29.0159L58.406 29.1148L59.0025 34.9242Z" fill="#E7A614"/>
<path d="M50.5726 44.8371L51.5355 44.7382L51.292 42.3667C51.225 41.7141 51.5749 41.2841 52.132 41.2269C52.705 41.1681 53.0696 41.5086 53.1367 42.1612L53.3818 44.5486L54.3447 44.4497L54.0694 41.7678C53.9697 40.797 53.3552 40.2167 52.4082 40.3139C51.7556 40.3809 51.4008 40.7632 51.1702 41.1809L50.939 38.9287L49.9761 39.0276L50.5726 44.8371ZM56.9649 44.2692C57.6175 44.2022 57.9723 43.8199 58.202 43.3942L58.269 44.0468L59.2399 43.9471L58.8085 39.7452L57.8376 39.8449L58.0811 42.2164C58.1481 42.869 57.7974 43.291 57.2403 43.3482C56.6673 43.4071 56.3034 43.0745 56.2364 42.4219L55.9913 40.0345L55.0284 40.1333L55.3029 42.8073C55.4034 43.7861 56.0179 44.3664 56.9649 44.2692ZM60.4425 43.8236L61.4055 43.7247L61.2412 42.1252C61.1268 41.011 61.6594 40.4014 62.5029 40.3148L62.5586 40.3091L62.454 39.2905C61.7107 39.3346 61.2693 39.8142 61.0713 40.4699L60.974 39.5228L60.0111 39.6217L60.4425 43.8236ZM65.1786 43.4178C66.0539 43.3279 66.6934 42.8199 66.6027 41.9365L66.6011 41.9206C66.5234 41.1646 65.8025 40.9572 65.1701 40.8291C64.6603 40.7206 64.1937 40.6398 64.1618 40.3295L64.1601 40.3135C64.1356 40.0748 64.3325 39.8777 64.7066 39.8392C65.0567 39.8033 65.502 39.9104 65.9332 40.1154L66.2449 39.3918C65.769 39.1431 65.1772 39.0189 64.652 39.0728C63.8164 39.1586 63.2057 39.7119 63.2874 40.5077L63.2891 40.5236C63.3716 41.3274 64.0901 41.511 64.7288 41.6223C65.2377 41.7228 65.6948 41.7885 65.7283 42.1148L65.73 42.1307C65.7586 42.4092 65.5378 42.6088 65.124 42.6513C64.6942 42.6954 64.1908 42.5702 63.6941 42.2754L63.3314 42.9721C63.8991 43.332 64.5817 43.479 65.1786 43.4178ZM69.4607 42.9861C70.1451 42.9158 70.5468 42.5207 70.8122 42.0512L70.8841 42.7515L71.8471 42.6526L71.2506 36.8431L70.2876 36.942L70.5197 39.2021C70.1764 38.8353 69.7036 38.538 69.0112 38.6091C68.0085 38.7121 67.1424 39.5972 67.2854 40.9899L67.287 41.0058C67.43 42.3984 68.4739 43.0874 69.4607 42.9861ZM69.6057 42.1268C68.9531 42.1938 68.3413 41.7178 68.2579 40.9061L68.2563 40.8902C68.1705 40.0546 68.6673 39.4888 69.3278 39.421C69.9724 39.3548 70.6002 39.8292 70.6835 40.6409L70.6852 40.6568C70.7677 41.4606 70.2503 42.0606 69.6057 42.1268ZM74.2745 42.4918C74.9192 42.4256 75.3291 42.1101 75.5804 41.7385L75.6344 42.2637L76.5734 42.1673L76.3177 39.6764C76.2613 39.1273 76.0723 38.6963 75.7308 38.4258C75.4053 38.1536 74.9187 38.0347 74.29 38.0993C73.6215 38.1679 73.1817 38.3498 72.7414 38.6041L73.0737 39.334C73.4394 39.1356 73.7789 38.9962 74.2484 38.9479C74.9249 38.8785 75.3236 39.1592 75.3849 39.7561L75.3955 39.8595C75.0586 39.7896 74.717 39.7523 74.2475 39.8005C73.2209 39.9059 72.5584 40.4243 72.6515 41.3315L72.6532 41.3474C72.7398 42.191 73.4867 42.5727 74.2745 42.4918ZM74.4732 41.7637C74.0116 41.8111 73.6298 41.6171 73.5882 41.2112L73.5865 41.1953C73.5416 40.7576 73.8807 40.4574 74.5014 40.3937C74.8834 40.3544 75.2171 40.3926 75.4736 40.4627L75.503 40.7492C75.5577 41.2824 75.1099 41.6983 74.4732 41.7637ZM79.2825 40.7954L77.7764 37.7976L76.7419 37.9038L78.9249 41.9339C78.8026 42.3084 78.6477 42.4449 78.3771 42.4727C78.1782 42.4931 77.9806 42.449 77.7957 42.3715L77.543 43.1213C77.8538 43.2502 78.166 43.3146 78.5639 43.2738C79.2404 43.2043 79.5817 42.8476 79.8277 41.9538L81.0552 37.4609L80.0525 37.5639L79.2825 40.7954ZM83.6051 41.5257C84.4805 41.4358 85.12 40.9278 85.0293 40.0445L85.0276 40.0286C84.95 39.2726 84.229 39.0651 83.5966 38.937C83.0869 38.8285 82.6202 38.7478 82.5883 38.4374L82.5867 38.4215C82.5622 38.1828 82.7591 37.9856 83.1331 37.9472C83.4833 37.9112 83.9285 38.0183 84.3597 38.2234L84.6715 37.4997C84.1956 37.251 83.6038 37.1268 83.0785 37.1808C82.2429 37.2666 81.6323 37.8198 81.714 38.6157L81.7156 38.6316C81.7981 39.4353 82.5166 39.6189 83.1554 39.7303C83.6643 39.8308 84.1214 39.8965 84.1549 40.2227L84.1565 40.2387C84.1851 40.5172 83.9644 40.7168 83.5505 40.7593C83.1208 40.8034 82.6174 40.6782 82.1207 40.3834L81.7579 41.0801C82.3257 41.4399 83.0082 41.587 83.6051 41.5257Z" fill="#E7A614"/>
<path d="M31.3391 52.8383L40.6501 51.8823L38.5991 31.9073L46.796 31.0656L45.987 23.187L20.2822 25.8264L21.0912 33.705L29.2881 32.8633L31.3391 52.8383Z" fill="#E7A614"/>
</svg>
