<svg width="166" height="166" viewBox="0 0 166 166" fill="none" xmlns="http://www.w3.org/2000/svg">
<path d="M158.115 111.566C152.167 115.508 149.123 122.702 150.576 129.757C153.066 142.137 142.137 153.066 129.757 150.576C122.702 149.192 115.508 152.167 111.566 158.115C104.58 168.628 89.1558 168.628 82.17 158.115C78.1583 152.167 70.965 149.123 63.91 150.576C51.5292 153.066 40.6008 142.137 43.0908 129.757C44.4742 122.702 41.5 115.508 35.5517 111.566C25.0383 104.58 25.0383 89.1558 35.5517 82.17C41.5 78.1583 44.5433 70.965 43.0908 63.91C40.6008 51.5292 51.5292 40.6008 63.91 43.0908C70.965 44.5433 78.1583 41.5 82.1008 35.5517C89.0867 25.0383 104.511 25.0383 111.497 35.5517C115.508 41.5 122.702 44.5433 129.757 43.0908C142.137 40.6008 153.066 51.5292 150.576 63.91C149.123 70.965 152.167 78.1583 158.115 82.1008C168.628 89.0867 168.628 104.58 158.115 111.566Z" fill="#F2C86B"/>
<path d="M144.282 97.7325C138.333 101.675 135.29 108.868 136.743 115.923C139.233 128.304 128.304 139.233 115.923 136.743C108.868 135.359 101.675 138.333 97.7325 144.282C90.7467 154.795 75.3225 154.795 68.3367 144.282C64.325 138.333 57.1317 135.29 50.0767 136.743C37.6958 139.233 26.7675 128.304 29.2575 115.923C30.6408 108.868 27.6667 101.675 21.7183 97.7325C11.205 90.7467 11.205 75.3225 21.7183 68.3367C27.6667 64.325 30.71 57.1317 29.2575 50.0767C26.7675 37.6958 37.6958 26.7675 50.0767 29.2575C57.1317 30.71 64.325 27.6667 68.2675 21.7183C75.2533 11.205 90.6775 11.205 97.6633 21.7183C101.675 27.6667 108.868 30.71 115.923 29.2575C128.304 26.7675 139.233 37.6958 136.743 50.0767C135.29 57.1317 138.333 64.325 144.282 68.2675C154.795 75.2533 154.795 90.7467 144.282 97.7325Z" stroke="#221B38" stroke-miterlimit="10" stroke-linecap="round" stroke-linejoin="round"/>
<path d="M55.3333 83L72.625 103.75L110.667 62.25" stroke="#221B38" stroke-miterlimit="10" stroke-linecap="round" stroke-linejoin="round"/>
</svg>
