<svg width="29" height="32" viewBox="0 0 29 32" fill="none" xmlns="http://www.w3.org/2000/svg">
<g filter="url(#filter0_d)">
<path d="M16 13C18.4853 13 20.5 10.9853 20.5 8.5C20.5 6.01472 18.4853 4 16 4C13.5147 4 11.5 6.01472 11.5 8.5C11.5 10.9853 13.5147 13 16 13Z" fill="#E7A614"/>
<path d="M14 11C16.4853 11 18.5 8.98528 18.5 6.5C18.5 4.01472 16.4853 2 14 2C11.5147 2 9.5 4.01472 9.5 6.5C9.5 8.98528 11.5147 11 14 11Z" stroke="#221B38" stroke-miterlimit="10" stroke-linecap="round" stroke-linejoin="round"/>
<path d="M23 24H9C7.9 24 7 23.1 7 22C7 18.69 9.69 16 13 16H19C22.31 16 25 18.69 25 22C25 23.1 24.1 24 23 24Z" fill="#F2C86B"/>
<path d="M21 22H7C5.9 22 5 21.1 5 20C5 16.69 7.69 14 11 14H17C20.31 14 23 16.69 23 20C23 21.1 22.1 22 21 22Z" stroke="#221B38" stroke-miterlimit="10" stroke-linecap="round" stroke-linejoin="round"/>
</g>
<defs>
<filter id="filter0_d" x="-2" y="0" width="32" height="32" filterUnits="userSpaceOnUse" color-interpolation-filters="sRGB">
<feFlood flood-opacity="0" result="BackgroundImageFix"/>
<feColorMatrix in="SourceAlpha" type="matrix" values="0 0 0 0 0 0 0 0 0 0 0 0 0 0 0 0 0 0 127 0"/>
<feOffset dy="4"/>
<feGaussianBlur stdDeviation="2"/>
<feColorMatrix type="matrix" values="0 0 0 0 0 0 0 0 0 0 0 0 0 0 0 0 0 0 0.25 0"/>
<feBlend mode="normal" in2="BackgroundImageFix" result="effect1_dropShadow"/>
<feBlend mode="normal" in="SourceGraphic" in2="effect1_dropShadow" result="shape"/>
</filter>
</defs>
</svg>
