<svg width="24" height="24" viewBox="0 0 24 24" fill="none" xmlns="http://www.w3.org/2000/svg" data-reactroot="">
<path stroke-linecap="round" stroke-width="0" stroke="#221b38" fill="#e6a714" d="M15 18.3264C14.0907 18.7583 13.0736 19 12 19C10.9264 19 9.90926 18.7583 9 18.3264L9 22H15V18.3264Z" transform="translate(2,2)"></path><path stroke-linecap="round" stroke-width="1" stroke="#221b38" fill="none" d="M15 18.3264C14.0907 18.7583 13.0736 19 12 19C10.9264 19 9.90926 18.7583 9 18.3264L9 22H15V18.3264Z"></path>
<path stroke-linecap="round" stroke-width="0" stroke="#221b38" fill="#e6a714" d="M15 5.67363C14.0907 5.24169 13.0736 5 12 5C10.9264 5 9.90926 5.24169 9 5.67363V2H15V5.67363Z" transform="translate(2,2)"></path><path stroke-linecap="round" stroke-width="1" stroke="#221b38" fill="none" d="M15 5.67363C14.0907 5.24169 13.0736 5 12 5C10.9264 5 9.90926 5.24169 9 5.67363V2H15V5.67363Z"></path>
<path stroke-linejoin="round" stroke-linecap="round" stroke-width="0" stroke="#221b38" fill="#f2c769" d="M12 19C15.866 19 19 15.866 19 12C19 8.13401 15.866 5 12 5C8.13401 5 5 8.13401 5 12C5 15.866 8.13401 19 12 19Z" transform="translate(2,2)"></path><path stroke-linejoin="round" stroke-linecap="round" stroke-width="1" stroke="#221b38" fill="none" d="M12 19C15.866 19 19 15.866 19 12C19 8.13401 15.866 5 12 5C8.13401 5 5 8.13401 5 12C5 15.866 8.13401 19 12 19Z"></path>
<path stroke-linejoin="round" stroke-linecap="round" stroke-width="1" stroke="#221b38" d="M12 5V6.5"></path>
<path stroke-linejoin="round" stroke-linecap="round" stroke-width="1" stroke="#221b38" d="M12 17.5V19"></path>
<path stroke-linejoin="round" stroke-linecap="round" stroke-width="1" stroke="#221b38" d="M19 12H17.5"></path>
<path stroke-linejoin="round" stroke-linecap="round" stroke-width="1" stroke="#221b38" d="M6.5 12H5"></path>
<path stroke-linejoin="round" stroke-linecap="round" stroke-width="1" stroke="#221b38" d="M10 11L12 13L15 10"></path>
</svg>
